 
 <svg
        version="1.0"
        xmlns="http://www.w3.org/2000/svg"
        width="500.000000pt"
        height="500.000000pt"
        viewBox="0 0 500.000000 500.000000"
        preserveAspectRatio="xMidYMid meet"
      >
      <style>
            path {
              fill: #000;
            }
            @media (prefers-color-scheme: dark) {
              path {
                fill: #fff;
              }
            }
      </style>

        <g
          transform="translate(0.000000,500.000000) scale(0.100000,-0.100000)"
          stroke="none"
        >
          <path
            d="M3025 4701 c-3 -2 -5 -23 -5 -45 0 -28 3 -36 9 -27 5 8 8 24 6 37 -1
15 3 24 11 24 15 0 18 -12 7 -24 -4 -3 -8 -14 -9 -24 -7 -66 -30 -182 -36
-182 -4 0 -8 8 -8 18 0 14 -2 15 -10 2 -8 -12 -14 -10 -36 18 -14 17 -33 32
-42 32 -11 -1 -8 -6 11 -16 15 -8 27 -21 27 -29 0 -17 -16 -20 -25 -5 -9 15
-66 12 -97 -4 -27 -14 -28 -14 -28 7 0 34 16 55 32 39 6 -6 23 -11 38 -11 20
1 21 2 5 6 -11 2 -30 9 -42 15 -27 13 -48 0 -57 -37 -4 -14 -11 -25 -18 -25
-17 0 -138 -132 -138 -151 0 -9 -7 -22 -15 -29 -8 -7 -15 -18 -14 -24 0 -7 3
-6 6 2 5 12 71 46 85 44 4 -1 15 9 25 22 16 20 28 23 86 24 67 1 91 7 83 21
-8 12 82 13 104 1 12 -6 20 -7 20 -1 0 5 -6 12 -12 14 -9 4 -8 6 3 6 8 1 19
-3 25 -9 5 -5 15 -6 24 0 12 7 11 10 -5 15 -11 4 -28 11 -39 16 -12 7 -34 7
-65 0 -25 -5 -62 -9 -81 -9 -55 1 -158 -41 -181 -74 -21 -29 -39 -37 -39 -16
0 19 65 73 84 70 18 -4 101 32 129 57 20 17 50 24 41 10 -3 -5 -9 -7 -14 -4
-4 3 -13 -1 -19 -9 -9 -11 -4 -12 35 -5 26 5 49 7 52 4 3 -2 12 0 22 5 22 12
130 -41 177 -87 30 -28 31 -31 15 -46 -33 -29 -178 -92 -255 -111 -50 -12 -20
11 38 29 30 10 60 24 66 31 6 8 36 21 65 30 53 15 62 23 47 38 -5 4 -8 13 -8
19 0 7 -10 13 -21 15 -15 2 -35 -13 -70 -52 -45 -50 -86 -76 -117 -76 -7 0 -5
5 4 10 9 5 31 23 48 39 18 17 41 33 52 36 10 4 19 11 19 16 0 6 -8 5 -20 -1
-22 -12 -60 -5 -60 11 0 14 -17 11 -34 -6 -8 -9 -13 -22 -9 -30 3 -9 0 -21 -6
-29 -6 -7 -8 -15 -5 -18 10 -11 -48 -19 -60 -9 -9 7 -17 7 -27 -2 -7 -6 -10
-8 -6 -2 11 13 -102 34 -125 23 -28 -14 -49 -40 -44 -55 3 -8 2 -11 -3 -8 -5
3 -12 1 -16 -5 -4 -6 5 -10 20 -10 14 0 24 -4 20 -9 -3 -5 9 -12 27 -14 23 -3
17 -4 -19 -5 -43 -2 -54 2 -68 21 l-16 22 4 -29 3 -29 80 2 c172 4 327 40 450
106 52 28 69 32 40 10 -11 -8 -16 -15 -11 -15 18 0 53 43 48 58 -5 11 -3 13 6
7 10 -6 11 -3 1 14 -6 12 -22 26 -36 31 -13 5 -24 14 -24 19 0 5 -20 18 -45
30 -25 12 -48 28 -52 36 -3 9 2 59 12 113 25 145 25 138 3 138 -10 0 -21 -2
-23 -5z m-305 -286 c-7 -9 -15 -13 -18 -10 -3 2 1 11 8 20 7 9 15 13 18 10 3
-2 -1 -11 -8 -20z m-20 -155 c-8 -5 -19 -10 -25 -10 -5 0 -3 5 5 10 8 5 20 10
25 10 6 0 3 -5 -5 -10z m103 -37 c-7 -2 -21 -2 -30 0 -10 3 -4 5 12 5 17 0 24
-2 18 -5z m58 -12 c-10 -18 -96 -40 -109 -27 -3 3 3 6 14 6 11 0 35 9 54 19
45 25 53 26 41 2z m-94 -7 c-3 -3 -12 -4 -19 -1 -8 3 -5 6 6 6 11 1 17 -2 13
-5z"
          />
          <path
            d="M3010 4575 c0 -14 2 -25 4 -25 2 0 6 11 8 25 3 14 1 25 -3 25 -5 0
-9 -11 -9 -25z"
          />
          <path
            d="M2505 4546 c-25 -13 -28 -43 -6 -48 9 -2 27 2 41 9 14 7 19 13 12 13
-7 0 -16 8 -20 18 -6 14 -11 16 -27 8z"
          />
          <path d="M3002 4520 c0 -14 2 -19 5 -12 2 6 2 18 0 25 -3 6 -5 1 -5 -13z" />
          <path
            d="M2080 4486 c-54 -10 -62 -13 -47 -22 21 -12 67 -7 67 7 0 5 20 8 45
7 24 -1 50 3 57 10 15 15 -29 15 -122 -2z"
          />
          <path
            d="M2260 4493 c8 -3 24 -10 35 -15 20 -9 20 -9 1 6 -11 9 -27 16 -35 15
-14 0 -14 -1 -1 -6z"
          />
          <path
            d="M1905 4455 c-33 -7 -71 -17 -84 -23 l-25 -9 27 -5 c15 -3 24 -1 21 4
-4 5 3 4 14 -3 16 -10 24 -9 50 9 16 12 38 22 49 23 10 0 27 4 38 9 18 8 18 9
-5 9 -14 -1 -52 -7 -85 -14z"
          />
          <path
            d="M2316 4453 c-4 -9 -4 -14 0 -10 4 4 14 1 23 -6 14 -11 15 -10 1 8 -8
11 -15 21 -16 23 -1 2 -5 -5 -8 -15z"
          />
          <path
            d="M2280 4446 c-9 -12 -7 -17 8 -25 11 -6 21 -8 24 -6 3 3 5 -2 5 -10 0
-8 -4 -12 -8 -9 -4 2 -10 0 -14 -6 -3 -5 -1 -10 6 -10 7 0 5 -6 -6 -13 -17
-13 -17 -14 3 -19 12 -3 23 -1 26 6 7 17 7 -20 0 -38 -3 -9 -11 -16 -16 -16
-6 0 -7 8 -3 18 5 14 4 15 -6 5 -7 -7 -19 -13 -27 -13 -22 0 -162 -82 -156
-92 3 -4 0 -8 -6 -8 -6 0 -8 -5 -4 -12 4 -7 3 -8 -5 -4 -6 4 -8 12 -5 18 4 7
0 7 -12 0 -35 -18 -113 -52 -120 -52 -4 0 -29 -13 -55 -30 -47 -29 -68 -31
-31 -4 15 11 14 12 -13 9 -16 -2 -31 -4 -32 -6 -2 -1 -7 -3 -13 -4 -5 -1 -13
-4 -17 -5 -5 -1 -11 -2 -15 -1 -5 0 -8 -3 -8 -9 0 -6 -3 -9 -7 -8 -13 3 -112
-33 -118 -43 -4 -5 -15 -9 -26 -9 -10 0 -19 -5 -19 -11 0 -5 -4 -8 -9 -5 -5 3
-31 -6 -57 -20 -27 -15 -61 -30 -75 -34 -23 -7 -25 -5 -21 16 3 15 11 24 23
24 11 0 28 9 39 20 21 21 94 54 157 70 23 6 45 15 48 20 8 13 -1 13 -28 -1
l-22 -11 22 21 c21 20 25 20 46 6 25 -16 37 -12 37 14 0 14 -2 14 -10 1 -8
-12 -10 -12 -16 3 -4 12 -13 15 -30 11 -25 -7 -30 2 -14 26 8 13 10 12 10 -4
0 -16 2 -17 17 -5 9 8 19 12 22 9 3 -3 7 3 9 12 2 9 -6 26 -18 38 l-21 21 26
26 c19 20 23 28 13 35 -9 5 -6 8 10 8 12 0 25 7 28 15 13 32 78 1 86 -40 3
-17 11 -20 52 -21 29 0 53 5 62 14 9 9 24 12 40 8 33 -9 31 -10 -47 -40 l-64
-24 -48 25 c-62 31 -71 26 -11 -6 24 -13 43 -25 42 -27 -9 -9 -108 -43 -104
-35 3 5 3 23 0 41 -5 22 -9 28 -15 18 -7 -10 -9 -9 -9 4 0 9 8 19 18 21 16 4
16 5 -1 6 -24 1 -33 -25 -18 -53 15 -27 11 -48 -9 -59 -10 -5 -6 -6 10 -3 14
2 34 1 45 -4 23 -9 65 4 81 26 7 8 41 26 75 38 35 13 78 31 94 40 17 9 37 16
45 16 8 0 35 11 59 25 23 14 54 25 68 25 13 0 21 4 18 10 -3 6 1 10 10 10 9 0
13 5 9 11 -3 6 -1 15 6 19 7 4 -6 10 -32 14 -27 4 -44 3 -46 -4 -2 -5 -18 -10
-37 -10 -18 0 -48 -3 -66 -7 -32 -6 -33 -7 -9 -13 l25 -6 -28 -28 c-19 -19
-32 -25 -40 -18 -7 5 -25 12 -41 16 -31 8 -25 22 12 28 12 1 22 7 22 13 -2 14
29 23 77 24 47 1 73 9 73 23 0 5 -17 6 -37 3 -28 -4 -33 -3 -18 4 11 5 14 10
7 10 -8 1 -26 -5 -40 -13 -28 -14 -194 -76 -205 -76 -4 0 -4 6 -1 14 6 17 -27
27 -50 14 -10 -6 -16 -5 -16 2 0 19 -29 10 -46 -14 -8 -14 -22 -23 -30 -20
-50 15 -50 15 -21 30 15 8 27 16 27 18 0 5 -160 -60 -230 -93 -44 -20 -44 -21
-10 -15 19 3 45 12 57 20 29 18 37 18 29 -1 -3 -8 -2 -15 3 -15 15 0 21 13 11
25 -8 10 -3 15 17 23 15 5 35 13 44 17 13 5 15 1 12 -19 -5 -24 -60 -76 -81
-76 -5 0 -30 -9 -54 -20 -25 -11 -54 -21 -64 -23 -29 -4 -46 -18 -40 -33 3 -8
0 -11 -10 -7 -8 3 -27 -9 -46 -28 -17 -19 -28 -27 -24 -19 4 8 -2 3 -14 -12
-23 -30 -50 -28 -50 3 0 10 -4 19 -8 19 -17 0 -32 -51 -32 -105 0 -44 5 -59
25 -81 24 -26 24 -26 5 -43 -14 -11 -17 -20 -11 -30 7 -11 10 -9 16 8 9 30 21
26 20 -6 0 -24 5 -29 30 -31 17 -2 35 -7 40 -12 10 -8 72 -14 107 -11 9 0 29
12 45 24 32 27 70 40 79 26 3 -5 17 -9 32 -8 l27 0 -25 10 c-14 5 -33 20 -42
32 -16 20 -17 21 -36 4 -11 -10 -35 -17 -57 -17 -45 0 -42 -11 4 -12 17 -1 31
-5 31 -9 0 -13 -38 -30 -45 -20 -3 6 -17 4 -33 -5 -33 -17 -66 -20 -42 -3 12
8 9 10 -12 6 -17 -2 -25 0 -21 6 4 6 -4 8 -20 3 -14 -3 -33 -3 -41 0 -20 8
-21 34 -1 34 8 0 15 5 15 12 0 9 3 9 12 0 7 -7 16 -12 21 -12 5 0 2 7 -7 15
-18 18 -33 19 -38 3 -3 -8 -6 -9 -11 -1 -13 21 17 33 45 19 15 -8 30 -11 34
-8 4 4 4 1 0 -6 -5 -8 2 -16 19 -22 36 -14 36 -13 69 15 16 14 33 25 38 25 5
0 6 4 3 10 -4 6 1 7 11 3 14 -5 13 -8 -7 -20 l-24 -14 25 7 c14 4 36 9 50 11
38 4 97 21 80 22 -13 1 -13 2 0 11 8 5 22 10 30 10 13 0 13 -1 0 -10 -23 -15
-4 -12 38 6 64 28 92 34 92 20 0 -15 -45 -42 -113 -67 -28 -10 -40 -17 -24
-14 38 7 34 -2 -5 -14 l-33 -9 32 -1 c17 -1 58 13 90 29 31 17 71 30 88 30
l30 -1 -35 -29 c-37 -32 -101 -51 -108 -31 -2 6 -8 9 -13 5 -17 -10 1 -24 31
-24 15 0 49 9 74 20 43 18 46 18 47 2 0 -13 3 -11 9 6 5 12 14 22 20 22 5 0
10 9 10 19 0 11 5 23 10 26 6 3 10 1 10 -4 0 -19 17 -12 23 9 4 15 14 20 41
20 20 0 45 5 56 12 10 7 23 9 27 5 4 -5 1 -12 -7 -17 -11 -7 -11 -10 -2 -10 7
0 17 11 22 25 7 18 14 23 27 18 15 -5 15 -3 -2 10 -12 9 -22 11 -26 5 -3 -5
-9 -10 -12 -9 -4 0 -23 -7 -43 -15 -19 -8 -44 -12 -53 -9 -10 3 -24 -1 -31
-10 -14 -17 -30 -20 -30 -6 0 5 25 21 55 35 30 13 70 36 88 50 19 14 36 23 39
20 9 -8 78 24 78 36 0 6 -5 8 -10 5 -16 -10 -40 14 -32 33 11 30 39 55 47 42
4 -7 2 -16 -5 -20 -16 -10 26 -40 55 -39 17 1 16 2 -5 9 l-25 7 24 10 25 10
-26 6 c-28 7 -47 37 -23 37 8 0 33 18 56 40 35 34 40 43 35 67 -4 15 -7 37 -7
47 0 11 -8 30 -18 42 -16 20 -21 22 -31 10z m-15 -54 c-6 -5 -28 -16 -50 -25
-22 -8 -57 -23 -78 -32 l-39 -16 26 34 c22 29 32 34 61 31 19 -1 37 2 41 7 3
5 15 9 27 9 12 0 17 -4 12 -8z m-539 -90 c-15 -15 -15 -15 -4 10 7 15 15 23
17 17 2 -6 -4 -18 -13 -27z m203 22 c7 5 9 1 5 -8 -9 -24 -30 -19 -31 6 -2 16
0 19 6 9 5 -7 14 -11 20 -7z m-241 -111 c2 -7 -1 -13 -8 -13 -6 0 -8 5 -4 12
4 6 3 8 -4 5 -5 -4 -8 -16 -5 -27 7 -26 -14 -26 -22 0 -3 11 -11 20 -16 20 -5
0 -9 5 -9 11 0 14 63 7 68 -8z m-93 -71 c5 -4 5 1 2 10 -3 9 1 22 9 29 12 10
17 8 28 -7 8 -10 12 -22 10 -25 -2 -4 -33 -18 -69 -33 -44 -18 -74 -24 -95
-19 -45 8 -21 26 28 21 22 -2 38 0 36 4 -3 5 -15 8 -28 8 -12 0 -27 5 -33 11
-9 9 -20 5 -45 -12 -25 -17 -29 -19 -18 -5 21 27 90 68 125 76 27 5 31 3 36
-22 4 -16 10 -32 14 -36z m560 36 c-15 -47 -56 -87 -126 -122 -40 -20 -82 -36
-95 -36 -21 0 -23 2 -12 25 6 13 15 22 19 19 11 -7 76 22 109 48 16 13 39 31
51 41 13 9 19 17 14 17 -8 0 29 25 43 29 2 1 0 -9 -3 -21z m90 12 c3 -5 1 -10
-4 -10 -6 0 -11 5 -11 10 0 6 2 10 4 10 3 0 8 -4 11 -10z m-185 -48 c0 -15
-34 -40 -74 -57 -70 -29 -60 2 12 40 51 26 62 29 62 17z m-214 -41 c-3 -5 -20
-12 -36 -16 -17 -4 -30 -11 -30 -17 0 -6 -3 -9 -6 -6 -10 11 -94 -23 -87 -34
3 -6 1 -8 -5 -4 -6 3 -14 1 -18 -5 -3 -6 -1 -15 6 -19 8 -5 2 -11 -17 -18 -57
-20 -67 -22 -31 -4 28 14 34 21 27 33 -6 9 -12 10 -16 4 -5 -5 -15 -12 -23
-14 -51 -12 -55 -13 -41 -3 11 8 11 10 0 15 -8 3 -6 5 6 5 41 -2 56 2 49 14
-4 7 -3 8 5 4 6 -4 19 -2 27 5 9 7 26 14 37 16 12 2 35 13 51 25 16 11 25 15
21 8 -9 -15 28 -5 60 15 22 14 31 12 21 -4z m-456 -15 c0 -8 -15 -23 -34 -34
l-34 -20 4 22 c2 12 -3 6 -13 -14 -16 -33 -17 -33 -21 -11 -4 27 6 40 36 46
12 2 30 8 39 14 23 13 23 13 23 -3z m85 -9 c-39 -24 -85 -75 -85 -96 0 -23
-14 -28 -26 -10 -5 8 -10 6 -16 -5 -11 -20 -28 -12 -28 13 0 20 40 37 40 18 1
-7 7 2 14 19 15 34 70 74 101 73 20 0 20 0 0 -12z m455 10 c0 -2 -10 -12 -21
-23 -22 -19 -22 -19 -10 4 10 18 31 31 31 19z m-435 -24 c-16 -8 -42 -27 -57
-41 -16 -14 -28 -20 -28 -14 0 13 87 72 104 72 6 -1 -2 -8 -19 -17z m355 -7
c0 -6 -96 -66 -106 -66 -5 0 16 16 46 35 58 36 60 37 60 31z m-110 -36 c-8 -5
-19 -10 -25 -10 -5 0 -3 5 5 10 8 5 20 10 25 10 6 0 3 -5 -5 -10z m190 -14 c0
-9 -40 -13 -46 -5 -3 5 6 9 20 9 14 0 26 -2 26 -4z m-430 -72 c0 -2 -9 -4 -21
-4 -11 0 -18 4 -14 10 5 8 35 3 35 -6z"
          />
          <path
            d="M1485 4160 c-7 -12 4 -16 58 -24 46 -6 48 6 4 22 -41 15 -54 15 -62
2z m32 -6 c-3 -3 -12 -4 -19 -1 -8 3 -5 6 6 6 11 1 17 -2 13 -5z"
          />
          <path
            d="M2715 4330 c-16 -18 -15 -19 32 -26 46 -8 73 -7 82 2 8 8 -34 33 -47
29 -7 -3 -22 -1 -31 5 -14 7 -23 5 -36 -10z"
          />
          <path
            d="M2359 4282 c18 -34 6 -69 -32 -92 -17 -11 -26 -20 -19 -20 23 0 72
57 72 83 0 14 -7 31 -17 38 -15 13 -15 12 -4 -9z"
          />
          <path d="M1465 4280 c-3 -6 1 -7 9 -4 18 7 21 14 7 14 -6 0 -13 -4 -16 -10z" />
          <path
            d="M2338 4265 c2 -15 0 -25 -7 -25 -6 0 -11 -6 -11 -14 0 -8 -6 -17 -12
-19 -10 -4 -10 -6 -1 -6 26 -2 56 70 34 83 -4 3 -6 -6 -3 -19z"
          />
          <path d="M2840 4270 c-13 -8 -13 -10 2 -10 9 0 20 5 23 10 8 13 -5 13 -25 0z" />
          <path
            d="M3177 4261 c-4 -16 -11 -22 -21 -18 -13 5 -16 -1 -16 -29 0 -21 4
-33 10 -29 6 4 8 10 5 14 -2 5 2 17 10 27 11 15 14 16 15 4 0 -8 7 -87 15
-175 17 -184 18 -205 7 -188 -4 7 -6 -18 -4 -55 2 -37 10 -74 18 -82 17 -20 8
-96 -10 -81 -9 8 -11 -6 -8 -53 l4 -63 -64 -26 c-78 -31 -170 -50 -223 -45
-37 3 -40 5 -38 31 1 15 -2 27 -7 27 -5 0 -7 7 -3 15 3 10 1 15 -7 13 -6 -2
-16 7 -21 20 -7 19 -5 22 15 22 19 0 23 4 19 20 -3 11 -10 17 -15 14 -6 -4 -8
3 -4 17 l6 24 -11 -22 c-7 -13 -17 -23 -23 -23 -6 0 -5 5 2 12 15 15 16 31 0
22 -8 -5 -9 0 -6 14 4 12 2 20 -3 16 -5 -3 -9 2 -9 11 0 9 -4 13 -10 10 -5 -3
-12 7 -16 22 -3 15 -14 53 -24 83 -28 87 -33 113 -19 104 7 -4 10 -2 8 5 -3 7
-9 11 -14 10 -6 -2 -13 10 -16 27 -3 17 -11 28 -18 26 -8 -2 -11 3 -8 12 4 9
-2 16 -17 20 -15 4 -27 20 -40 56 -10 28 -20 49 -22 47 -4 -3 143 -435 202
-594 22 -60 52 -81 111 -77 44 3 45 2 13 -5 l-35 -8 40 -2 c48 -1 215 43 225
60 5 6 13 8 20 4 9 -6 11 -4 5 5 -6 10 -4 12 8 7 10 -4 16 -2 14 6 -1 7 4 11
11 9 8 -1 11 2 7 8 -3 5 -1 10 6 10 8 0 10 16 5 58 -3 31 -17 194 -31 362 -14
168 -27 309 -29 315 -1 5 -5 -1 -9 -14z m-390 -568 c26 -69 40 -139 23 -110
-10 15 -60 153 -60 164 0 2 3 3 8 3 4 0 17 -26 29 -57z"
          />
          <path
            d="M1392 4234 c-44 -35 -37 -44 29 -35 11 2 18 41 7 41 -5 0 -6 5 -3 10
9 15 3 12 -33 -16z"
          />
          <path
            d="M3086 4244 c-76 -41 -241 -87 -351 -97 -37 -3 -36 -4 10 -5 60 -2
190 28 277 63 34 14 68 23 76 20 7 -2 10 -1 7 4 -3 5 -1 12 5 16 5 3 10 -3 10
-14 0 -11 -4 -22 -9 -26 -15 -9 -9 -44 6 -38 14 5 19 93 6 93 -5 -1 -21 -8
-37 -16z"
          />
          <path d="M2266 4241 c-4 -7 -5 -15 -2 -18 9 -9 19 4 14 18 -4 11 -6 11 -12 0z" />
          <path d="M2426 4203 c-6 -14 -5 -15 5 -6 7 7 10 15 7 18 -3 3 -9 -2 -12 -12z" />
          <path
            d="M3369 4198 c-12 -22 -11 -22 7 -8 10 8 20 15 22 16 2 1 -1 5 -7 8 -5
4 -15 -4 -22 -16z"
          />
          <path
            d="M2382 4170 c-29 -4 -31 -6 -14 -16 14 -9 22 -8 37 2 24 18 18 21 -23
14z"
          />
          <path
            d="M3335 4162 c-8 -21 -18 -68 -12 -62 14 17 34 71 27 75 -4 3 -11 -3
-15 -13z"
          />
          <path d="M3540 4161 c0 -6 4 -13 10 -16 6 -3 7 1 4 9 -7 18 -14 21 -14 7z" />
          <path d="M3511 4144 c0 -11 3 -14 6 -6 3 7 2 16 -1 19 -3 4 -6 -2 -5 -13z" />
          <path
            d="M2600 4140 c0 -5 7 -7 15 -4 8 4 15 8 15 10 0 2 -7 4 -15 4 -8 0 -15
-4 -15 -10z"
          />
          <path
            d="M2325 4130 c-3 -5 -1 -10 4 -10 6 0 11 5 11 10 0 6 -2 10 -4 10 -3 0
-8 -4 -11 -10z"
          />
          <path
            d="M2336 4106 c-20 -43 -52 -69 -127 -103 -32 -15 -55 -31 -52 -37 4 -5
-1 -7 -11 -3 -11 5 -15 3 -10 -5 5 -8 2 -9 -10 -5 -11 5 -15 3 -10 -5 5 -8 2
-9 -10 -5 -9 4 -15 3 -12 -2 3 -4 -36 -27 -87 -50 -81 -37 -93 -40 -103 -26
-7 9 -18 13 -28 9 -24 -9 -20 -26 5 -19 19 6 20 5 9 -15 -6 -12 -17 -19 -23
-17 -7 2 -18 -3 -24 -12 -11 -13 -12 -11 -7 16 6 29 4 31 -16 26 -16 -4 -21
-3 -16 5 10 16 -5 15 -27 -2 -9 -7 -28 -12 -42 -10 -15 1 -23 -2 -19 -8 4 -5
20 -7 38 -4 35 7 67 9 72 4 2 -2 1 -14 -3 -26 -6 -25 -23 -30 -23 -6 0 13 -6
12 -37 -7 -44 -26 -69 -47 -35 -30 36 19 25 -3 -12 -23 -19 -10 -40 -15 -47
-11 -8 6 -10 4 -4 -5 6 -10 4 -12 -8 -7 -10 3 -17 2 -17 -3 0 -6 -3 -9 -7 -8
-5 1 -27 -4 -50 -12 -48 -15 -82 -8 -64 14 9 10 8 15 -3 19 -8 3 -13 -1 -12
-10 0 -9 -6 -18 -14 -20 -12 -4 -12 -3 -2 5 11 7 10 11 -4 16 -9 4 -22 1 -28
-5 -8 -9 -7 -10 3 -4 10 6 12 4 7 -4 -9 -13 -18 -8 -23 12 -15 67 -15 67 0 61
8 -3 18 0 22 6 4 6 16 8 27 5 11 -4 27 -1 36 8 24 21 44 25 69 16 15 -5 23 -4
27 7 3 8 18 14 36 14 16 0 30 4 30 10 0 5 -7 7 -16 3 -8 -3 -26 0 -38 6 -20
11 -28 9 -62 -13 -21 -14 -44 -30 -50 -35 -6 -5 -36 -8 -65 -6 -31 1 -65 -3
-80 -11 -33 -16 -45 -8 -75 52 -22 44 -25 42 -7 -3 5 -12 3 -14 -8 -8 -11 7
-11 5 1 -9 8 -10 15 -24 16 -30 0 -6 2 -16 2 -22 2 -15 57 -11 77 6 9 7 15 9
14 4 -4 -22 2 -45 10 -40 5 3 8 -2 7 -12 -1 -21 75 -62 116 -62 15 0 48 7 73
15 64 22 684 328 718 355 26 21 39 49 15 34 -7 -4 -8 -3 -4 5 4 6 11 9 16 6 9
-6 30 25 30 44 0 24 -29 9 -44 -23z m-1011 -316 c3 -5 1 -10 -4 -10 -6 0 -11
5 -11 10 0 6 2 10 4 10 3 0 8 -4 11 -10z m471 -2 c4 -7 3 -8 -4 -4 -7 4 -12 2
-12 -3 0 -6 -4 -11 -10 -11 -5 0 -7 7 -4 15 7 18 20 19 30 3z"
          />
          <path
            d="M2693 4100 c-6 -17 -8 -30 -3 -30 8 0 24 50 18 56 -2 2 -9 -10 -15
-26z"
          />
          <path d="M2666 4093 c-6 -14 -5 -15 5 -6 7 7 10 15 7 18 -3 3 -9 -2 -12 -12z" />
          <path d="M2716 4094 c-10 -25 1 -29 14 -5 6 12 7 21 1 21 -5 0 -12 -7 -15 -16z" />
          <path d="M2900 4064 l-45 -14 48 5 c50 5 103 25 62 24 -11 -1 -40 -7 -65 -15z" />
          <path d="M3484 4048 l-29 -33 33 29 c17 17 32 31 32 33 0 8 -8 1 -36 -29z" />
          <path d="M2196 4061 c-3 -4 6 -6 19 -3 14 2 25 6 25 8 0 8 -39 4 -44 -5z" />
          <path d="M2778 4043 c12 -2 30 -2 40 0 9 3 -1 5 -23 4 -22 0 -30 -2 -17 -4z" />
          <path d="M3322 4000 c0 -14 2 -19 5 -12 2 6 2 18 0 25 -3 6 -5 1 -5 -13z" />
          <path d="M3345 4009 c-10 -15 3 -25 16 -12 7 7 7 13 1 17 -6 3 -14 1 -17 -5z" />
          <path d="M3424 4004 c-18 -14 -18 -15 4 -4 12 6 22 13 22 15 0 8 -5 6 -26 -11z" />
          <path
            d="M3370 3980 c-8 -5 -10 -10 -5 -10 6 0 17 5 25 10 8 5 11 10 5 10 -5
0 -17 -5 -25 -10z"
          />
          <path
            d="M2074 3965 c-4 -9 -18 -22 -33 -30 -16 -9 -20 -14 -10 -15 17 0 59
35 59 50 0 15 -10 12 -16 -5z"
          />
          <path
            d="M3560 3931 c-42 -13 -90 -41 -90 -52 0 -8 4 -8 13 -1 18 14 57 25 57
15 0 -5 -9 -9 -20 -10 -11 -1 -35 -14 -55 -29 -36 -27 -47 -27 -19 0 8 9 11
16 5 16 -14 0 -52 -54 -85 -122 -27 -54 -28 -64 -24 -160 3 -94 7 -109 37
-166 100 -186 329 -263 541 -183 65 25 144 93 169 147 25 51 27 66 6 38 -14
-18 -14 -18 -8 4 3 12 9 22 14 22 5 0 7 12 3 28 -4 21 -3 24 5 12 23 -32 18
134 -5 198 -12 33 -29 51 -75 83 -32 22 -74 59 -91 83 -18 24 -42 50 -53 57
-19 11 -19 11 -5 -7 8 -10 23 -30 35 -44 11 -13 -3 -4 -32 22 -34 30 -65 47
-90 52 -51 8 -202 6 -233 -3z m461 -171 l34 -30 -31 15 c-34 16 -63 45 -47 45
6 0 26 -14 44 -30z m-639 -92 c2 -36 1 -65 -3 -62 -12 7 -20 74 -13 112 9 45
12 36 16 -50z m105 40 c-3 -8 -6 -5 -6 6 -1 11 2 17 5 13 3 -3 4 -12 1 -19z
m291 -45 c-4 -22 -22 -20 -26 1 -2 10 3 16 13 16 10 0 15 -7 13 -17z m-52 -10
c-4 11 -2 16 5 12 5 -4 9 -16 7 -28 -5 -34 27 -32 52 2 26 37 46 40 52 6 3
-15 1 -22 -5 -18 -6 4 -8 -2 -5 -14 5 -17 1 -19 -39 -18 -25 1 -51 10 -63 20
-11 10 -20 13 -20 7 0 -7 -4 -12 -10 -12 -11 0 -14 43 -3 53 3 4 12 -1 20 -11
14 -16 14 -16 9 1z m110 -90 c18 3 24 0 24 -14 0 -22 -3 -22 -52 -9 -20 6 -39
17 -42 26 -3 8 -11 12 -17 8 -7 -4 -9 -3 -5 4 4 7 16 6 37 -5 17 -8 41 -13 55
-10z m-397 -88 c4 -16 13 -30 21 -30 8 0 18 -15 24 -32 9 -34 20 -41 32 -21 5
7 3 8 -6 3 -9 -5 -11 -4 -6 3 4 7 2 12 -5 12 -7 0 -10 2 -7 5 8 8 128 -63 156
-91 13 -13 29 -24 37 -24 8 0 32 -9 52 -20 21 -11 45 -20 53 -21 8 -1 -5 -5
-30 -10 -56 -12 -110 -3 -110 17 0 8 5 12 11 9 6 -4 5 2 -3 14 -14 24 -13 23
-68 25 -27 1 -40 -3 -40 -12 0 -7 -5 -10 -10 -7 -6 4 -8 11 -5 16 3 5 0 6 -8
3 -8 -3 -18 -1 -21 5 -4 6 -14 8 -24 5 -15 -5 -15 -4 1 6 17 11 17 13 -7 45
-14 18 -23 34 -21 36 2 2 -7 9 -20 15 -20 10 -23 9 -18 -5 4 -9 11 -22 17 -30
9 -12 8 -12 -10 -1 -12 7 -27 22 -33 33 -7 10 -8 16 -2 13 5 -4 15 3 21 15 8
15 9 19 1 15 -6 -4 -11 0 -11 9 0 9 5 13 10 10 6 -3 10 1 10 10 0 11 -5 15
-15 12 -21 -9 -26 6 -12 36 l12 25 14 -31 c7 -18 16 -45 20 -62z m474 -222
c-7 -2 -21 -2 -30 0 -10 3 -4 5 12 5 17 0 24 -2 18 -5z m-63 -13 c0 -5 -15
-10 -32 -9 -28 0 -30 2 -13 9 28 12 45 12 45 0z"
          />
          <path
            d="M3540 3356 c0 -9 5 -16 10 -16 6 0 10 4 10 9 0 6 -4 13 -10 16 -5 3
-10 -1 -10 -9z"
          />
          <path
            d="M3510 3340 c0 -5 5 -10 10 -10 6 0 10 5 10 10 0 6 -4 10 -10 10 -5 0
-10 -4 -10 -10z"
          />
          <path
            d="M3700 3265 c0 -8 5 -15 10 -15 6 0 10 7 10 15 0 8 -4 15 -10 15 -5 0
-10 -7 -10 -15z"
          />
          <path
            d="M1985 3910 c-3 -5 -2 -10 4 -10 5 0 13 5 16 10 3 6 2 10 -4 10 -5 0
-13 -4 -16 -10z"
          />
          <path d="M2241 3826 c-9 -11 -6 -12 14 -8 14 2 28 8 31 13 9 15 -33 10 -45 -5z" />
          <path d="M2346 3798 c3 -5 10 -6 15 -3 13 9 11 12 -6 12 -8 0 -12 -4 -9 -9z" />
          <path
            d="M2240 3786 c0 -8 7 -17 16 -20 23 -9 34 -7 34 5 0 6 -7 8 -16 5 -12
-4 -15 -2 -10 9 3 9 0 15 -9 15 -8 0 -15 -6 -15 -14z"
          />
          <path
            d="M2380 3792 c0 -10 48 -37 55 -31 2 3 -9 13 -25 23 -17 9 -30 13 -30
8z"
          />
          <path
            d="M2170 3772 c0 -7 10 -23 23 -36 19 -19 34 -22 100 -24 43 -1 83 -5
90 -9 7 -4 21 -9 32 -10 11 -2 21 -8 23 -13 2 -5 10 -6 18 -3 7 3 11 9 8 14
-3 5 1 6 8 4 8 -3 14 -15 15 -26 2 -29 8 -32 30 -21 23 12 35 6 53 -28 9 -18
10 -25 1 -28 -6 -2 -9 -7 -6 -12 3 -5 1 -20 -5 -35 -7 -17 -7 -24 0 -20 6 3
10 0 10 -7 1 -7 8 0 16 15 10 18 13 39 9 58 -8 37 -76 117 -94 111 -8 -3 -11
0 -7 7 5 7 1 9 -11 4 -10 -3 -15 -3 -11 2 9 10 -10 35 -25 35 -6 0 -2 -7 9
-15 16 -12 16 -14 3 -15 -22 0 -70 25 -63 33 8 7 -53 0 -114 -14 -45 -10 -75
-1 -99 30 -9 11 -12 12 -13 3z m163 -49 c-7 -2 -19 -2 -25 0 -7 3 -2 5 12 5
14 0 19 -2 13 -5z"
          />
          <path
            d="M2403 3682 c27 -49 103 -171 115 -184 16 -19 42 -24 42 -9 0 5 -11
12 -25 15 -14 4 -23 10 -20 15 2 5 -2 12 -11 15 -8 3 -12 10 -9 16 4 6 12 8
18 4 7 -3 -4 10 -24 28 -20 18 -42 47 -48 65 -7 17 -19 34 -27 37 -8 3 -13 2
-11 -2z"
          />
          <path d="M932 3660 c0 -14 2 -19 5 -12 2 6 2 18 0 25 -3 6 -5 1 -5 -13z" />
          <path
            d="M2870 3641 c0 -5 7 -14 15 -21 16 -14 18 -10 9 14 -6 17 -24 22 -24
7z"
          />
          <path
            d="M2505 3630 c-3 -5 1 -10 10 -10 9 0 13 5 10 10 -3 6 -8 10 -10 10 -2
0 -7 -4 -10 -10z"
          />
          <path
            d="M1095 3620 c-3 -5 -1 -10 4 -10 6 0 11 5 11 10 0 6 -2 10 -4 10 -3 0
-8 -4 -11 -10z"
          />
          <path
            d="M2950 3604 l-45 -12 40 0 c22 0 54 3 70 7 29 7 30 7 5 12 -14 2 -45
-1 -70 -7z"
          />
          <path d="M3058 3613 c7 -3 16 -2 19 1 4 3 -2 6 -13 5 -11 0 -14 -3 -6 -6z" />
          <path
            d="M1221 3566 c14 -15 20 -16 35 -6 18 11 18 11 0 6 -10 -4 -26 -1 -35
6 -14 11 -14 10 0 -6z"
          />
          <path
            d="M1700 3570 c-14 -4 -21 -8 -16 -9 5 -1 3 -7 -3 -15 -9 -11 -7 -15 6
-18 26 -7 60 6 44 16 -7 5 -10 14 -7 22 3 8 4 14 3 13 -1 -1 -13 -5 -27 -9z"
          />
          <path d="M1352 3550 c0 -14 2 -19 5 -12 2 6 2 18 0 25 -3 6 -5 1 -5 -13z" />
          <path
            d="M1270 3541 c8 -6 11 -11 7 -11 -23 0 23 -27 47 -27 16 0 32 -7 37
-14 7 -11 9 -11 9 -1 0 7 -21 22 -47 34 -62 29 -71 32 -53 19z"
          />
          <path d="M1374 3529 c-3 -6 -2 -15 3 -20 5 -5 9 -1 10 11 2 22 -2 25 -13 9z" />
          <path
            d="M1979 3533 c-16 -4 -46 -89 -35 -100 3 -3 17 18 31 47 28 56 28 58 4
53z"
          />
          <path
            d="M2031 3494 c-13 -27 -37 -61 -55 -76 -27 -23 -32 -24 -39 -10 -5 12
-6 11 -3 -5 2 -13 0 -23 -5 -23 -5 0 -9 -5 -9 -12 0 -7 16 4 36 23 39 36 39
37 17 -33 -5 -17 3 -12 28 17 19 22 44 48 57 58 21 17 31 57 15 57 -5 0 -21
-23 -36 -51 -39 -71 -45 -54 -7 21 17 34 29 67 27 73 -2 6 -14 -12 -26 -39z"
          />
          <path
            d="M2167 3494 c-8 -16 -12 -35 -9 -43 3 -8 0 -11 -6 -7 -14 8 -35 -30
-26 -46 4 -6 3 -8 -3 -5 -6 4 -18 -4 -27 -18 -9 -14 -21 -25 -27 -25 -6 0 -1
13 10 28 11 16 21 35 23 43 2 8 7 17 11 20 4 3 0 12 -10 20 -10 7 -15 10 -11
5 4 -4 -14 -35 -38 -69 -25 -33 -42 -67 -40 -74 3 -8 1 -11 -4 -8 -6 3 -10 0
-10 -7 -1 -8 -6 -6 -15 6 -8 11 -15 14 -15 8 0 -7 -7 -29 -16 -50 -15 -35 -16
-36 -30 -18 -13 18 -11 23 13 50 16 17 19 23 7 13 -27 -22 -52 -13 -60 22 -8
39 -19 56 -40 59 -15 2 -36 -32 -111 -180 -96 -191 -183 -382 -183 -403 0 -22
34 -42 105 -60 99 -25 179 -70 254 -142 35 -35 69 -63 76 -63 25 0 111 113 99
131 -4 7 -3 9 4 5 6 -4 25 14 43 41 18 26 48 63 66 83 17 20 37 47 43 61 5 13
32 55 59 94 27 38 47 73 45 77 -3 5 0 8 6 8 7 0 9 7 6 16 -3 8 -2 12 4 9 5 -3
8 4 7 15 -1 11 -5 20 -11 20 -5 0 -1 9 9 20 13 14 21 17 26 9 5 -8 8 -8 13 0
4 6 2 11 -5 11 -8 0 -8 4 1 15 7 9 16 12 19 7 3 -6 15 2 25 17 l20 26 -22 -19
c-29 -25 -28 -10 0 23 13 14 -1 4 -30 -24 -29 -27 -56 -48 -60 -45 -4 3 -7 -4
-7 -15 0 -11 -4 -20 -10 -21 -5 0 -18 -4 -28 -9 -10 -4 -20 -6 -22 -3 -2 2 25
48 61 102 35 54 64 103 64 109 0 14 0 14 -74 -98 -36 -55 -70 -106 -77 -113
-16 -20 -22 -7 -9 18 8 15 8 20 1 16 -16 -10 -14 -1 15 55 14 28 24 53 22 55
-3 2 -22 -33 -43 -77 l-40 -81 -44 7 c-66 10 -74 14 -59 34 10 13 10 14 -2 4
-8 -7 -18 -13 -22 -13 -14 0 4 54 29 83 12 16 23 34 23 41 0 21 95 107 112
101 9 -4 18 0 22 10 3 9 2 13 -4 10 -6 -4 -6 3 0 20 17 46 9 62 -10 20 -10
-22 -31 -51 -46 -65 l-26 -25 7 25 c4 14 22 51 41 84 19 32 33 64 31 69 -2 6
-19 -17 -37 -50 -19 -34 -37 -60 -42 -57 -4 3 -6 -1 -3 -8 3 -7 -18 -45 -46
-83 -56 -78 -84 -125 -72 -125 5 0 0 -5 -9 -11 -21 -12 -62 6 -52 23 4 6 3 8
-3 5 -6 -4 -19 4 -31 16 -20 22 -20 22 -1 57 10 19 19 29 19 22 0 -7 -8 -25
-17 -40 -10 -15 12 4 48 41 44 44 72 65 82 61 8 -3 18 0 23 7 5 8 3 10 -6 4
-8 -5 -11 -3 -8 6 3 8 9 13 14 12 15 -2 82 124 74 138 -6 8 -12 3 -23 -17z
m-88 -99 c-12 -19 -25 -35 -31 -35 -5 0 -7 -4 -3 -9 3 -5 1 -12 -4 -15 -18
-12 -4 24 23 59 36 45 41 45 15 0z m31 -154 c-5 -11 -15 -23 -21 -27 -6 -3 -3
5 6 20 20 30 30 35 15 7z m-95 -109 c-3 -3 -20 9 -38 27 l-32 34 38 -28 c21
-15 35 -30 32 -33z m40 -20 c-3 -3 -11 0 -18 7 -9 10 -8 11 6 5 10 -3 15 -9
12 -12z m176 -9 c-12 -20 -14 -14 -5 12 4 9 9 14 11 11 3 -2 0 -13 -6 -23z
m109 -13 c-8 -6 -28 -9 -45 -9 l-30 1 33 8 c18 4 36 10 39 14 4 3 9 4 12 0 3
-3 -1 -9 -9 -14z"
          />
          <path
            d="M1896 3474 c-4 -14 -5 -28 -3 -31 3 -2 8 8 11 23 4 14 5 28 3 31 -3
2 -8 -8 -11 -23z"
          />
          <path
            d="M1380 3485 c0 -2 18 -14 40 -25 22 -11 40 -18 40 -15 0 2 -18 14 -40
25 -22 11 -40 18 -40 15z"
          />
          <path
            d="M820 3437 c0 -7 10 -13 21 -14 34 -3 57 -30 52 -61 -4 -21 -2 -24 6
-12 8 12 11 8 11 -18 0 -18 4 -31 8 -28 4 2 9 -9 10 -27 3 -41 -2 -34 -43 59
-27 60 -34 70 -29 42 4 -26 3 -38 -6 -38 -7 0 -6 -6 4 -16 14 -14 14 -17 0
-39 -15 -22 -14 -25 10 -46 20 -18 23 -26 15 -46 -7 -20 -6 -28 8 -39 10 -7
23 -14 28 -14 6 0 3 -5 -5 -10 -12 -8 -11 -10 7 -10 12 0 37 -8 55 -18 18 -10
38 -17 45 -15 7 3 28 -8 48 -22 19 -15 35 -24 35 -20 0 4 7 2 15 -5 9 -7 18
-10 21 -7 3 3 -20 30 -50 60 -31 30 -56 58 -56 61 0 4 8 10 18 14 14 6 16 15
11 52 -4 32 -6 37 -7 15 l-2 -29 -17 24 c-10 14 -15 26 -13 27 3 2 -5 9 -16
18 -12 8 -29 34 -39 57 -18 48 -53 90 -66 82 -5 -3 -9 0 -9 6 0 6 -4 9 -9 6
-5 -3 -14 1 -21 9 -15 18 -40 20 -40 2z m105 -47 c10 -11 16 -20 13 -20 -3 0
-13 9 -23 20 -10 11 -16 20 -13 20 3 0 13 -9 23 -20z m23 -61 c-3 -8 -7 -3
-11 10 -4 17 -3 21 5 13 5 -5 8 -16 6 -23z m24 -84 c2 -13 12 -21 30 -23 31
-4 46 -35 27 -58 -10 -12 -6 -21 21 -49 36 -37 30 -44 -16 -20 -23 12 -25 15
-9 15 18 0 18 1 -3 16 -15 11 -22 26 -23 52 -1 37 -1 37 -8 7 l-7 -30 -22 35
c-23 37 -26 49 -16 75 8 19 20 9 26 -20z m-71 -2 c13 -16 12 -17 -3 -4 -10 7
-18 15 -18 17 0 8 8 3 21 -13z m199 -183 c0 -5 -2 -10 -4 -10 -3 0 -8 5 -11
10 -3 6 -1 10 4 10 6 0 11 -4 11 -10z"
          />
          <path
            d="M2291 3414 c-12 -19 -16 -32 -11 -29 11 7 43 65 36 65 -2 0 -13 -16
-25 -36z"
          />
          <path d="M1881 3414 c0 -11 3 -14 6 -6 3 7 2 16 -1 19 -3 4 -6 -2 -5 -13z" />
          <path
            d="M2317 3378 c-13 -29 -21 -58 -16 -63 4 -6 4 -17 -1 -25 -6 -8 -10
-19 -9 -25 0 -5 6 1 14 15 7 14 10 29 5 33 -12 13 32 108 48 102 7 -3 10 0 7
5 -12 20 -24 9 -48 -42z"
          />
          <path d="M806 3358 c-3 -13 -5 -32 -5 -43 1 -11 5 -2 10 19 10 42 6 62 -5 24z" />
          <path
            d="M2795 3360 c-12 -3 -20 -14 -21 -26 0 -15 4 -20 14 -17 8 3 17 2 21
-4 3 -5 12 -3 21 6 13 14 13 18 0 31 -9 9 -25 13 -35 10z"
          />
          <path
            d="M1155 3340 c-16 -18 -17 -23 -5 -30 16 -10 27 -13 50 -11 10 0 11 -2
3 -5 -7 -3 -15 -5 -17 -5 -12 0 -71 -63 -68 -73 2 -6 5 -22 7 -36 2 -23 7 -25
51 -24 27 1 41 -1 32 -3 -13 -3 -18 -14 -18 -37 0 -20 -8 -40 -20 -51 -17 -16
-18 -19 -5 -29 8 -6 18 -32 21 -59 6 -41 5 -47 -10 -41 -9 3 -28 -2 -43 -11
-18 -12 -28 -14 -31 -7 -2 7 -8 12 -14 12 -6 0 -8 -7 -4 -15 3 -9 0 -15 -8
-15 -8 0 -22 20 -32 45 -9 25 -22 48 -27 52 -11 7 -10 5 17 -60 l16 -38 -44
-18 c-24 -11 -46 -25 -48 -32 -2 -7 -18 7 -36 31 -18 24 -32 40 -32 36 0 -5
-8 -2 -17 5 -10 8 -6 -3 9 -23 20 -26 24 -38 15 -42 -6 -3 -3 -4 9 -1 12 3 27
-1 34 -10 8 -9 21 -13 32 -9 18 5 19 3 13 -28 -4 -24 -3 -29 4 -18 6 8 11 22
11 31 0 9 9 24 20 34 16 15 22 15 35 5 12 -10 15 -10 15 4 0 11 9 16 28 16 15
0 47 11 71 25 57 33 64 32 56 -7 -11 -49 -42 -78 -84 -78 -20 0 -43 -5 -51
-10 -12 -8 -10 -10 9 -10 l25 0 -29 -30 c-17 -18 -39 -30 -54 -30 -18 0 -22 3
-13 9 11 7 11 9 -2 14 -9 4 -15 1 -13 -5 1 -7 -7 -14 -17 -16 -14 -3 -17 0
-13 12 6 14 3 14 -21 -1 -38 -24 -40 -26 -15 -19 12 4 24 2 28 -4 4 -6 15 -8
25 -5 25 8 33 -8 19 -39 -10 -22 -19 -26 -56 -26 -32 0 -43 4 -43 15 0 8 -4
15 -8 15 -5 0 -17 6 -27 14 -15 10 -17 17 -8 27 7 10 7 24 -3 49 -9 25 -13 29
-13 14 -1 -11 -13 -49 -27 -84 -14 -34 -22 -70 -19 -79 5 -12 10 -8 21 18 8
19 12 41 10 48 -4 9 3 8 18 -4 17 -13 21 -21 14 -30 -8 -10 -6 -13 6 -13 9 0
16 5 16 11 0 8 4 8 13 1 6 -6 26 -12 42 -15 26 -3 24 -4 -10 -6 -34 -1 -88
-20 -60 -21 6 0 3 -5 -5 -10 -24 -15 6 -13 43 4 18 7 46 19 63 26 29 10 54 44
54 73 1 13 67 47 94 47 9 0 20 8 23 18 4 9 22 32 40 49 18 18 33 39 33 48 0 8
4 15 9 15 5 0 12 7 15 16 3 8 2 12 -4 9 -6 -3 -10 1 -10 9 0 9 -8 16 -18 16
-19 0 -21 26 -13 145 l2 30 13 -31 c8 -17 17 -50 21 -74 6 -34 9 -40 17 -27
10 19 28 23 28 7 0 -5 -9 -19 -20 -30 -13 -13 -15 -20 -7 -20 18 0 37 21 37
40 0 9 9 33 20 55 16 31 19 50 14 87 -5 37 -3 48 7 49 8 0 28 2 44 2 17 1 35
5 42 10 35 22 11 -66 -38 -140 -15 -23 -32 -58 -37 -77 -6 -18 -17 -42 -26
-52 -9 -11 -44 -57 -78 -104 -76 -105 -170 -200 -227 -229 -54 -28 -173 -40
-197 -20 -14 12 -16 11 -12 -6 2 -11 11 -19 19 -17 8 2 11 0 7 -4 -11 -10 12
-35 25 -27 5 3 7 1 4 -4 -8 -12 54 -63 75 -63 7 1 2 7 -12 15 -27 15 -20 19
17 9 13 -4 20 -11 16 -17 -4 -7 8 -8 36 -4 138 18 303 173 388 366 13 29 40
74 60 98 20 24 33 46 30 49 -3 3 -16 -9 -29 -28 -18 -26 -29 -32 -50 -30 -29
3 -36 20 -16 40 8 8 8 15 -1 26 -10 12 -9 20 4 40 21 32 25 32 18 4 -4 -18 -1
-16 12 7 9 16 21 32 26 36 5 3 12 18 15 33 2 15 1 25 -3 23 -5 -3 -2 23 7 59
8 35 17 64 20 64 3 -1 14 -7 25 -16 14 -11 19 -26 19 -57 -1 -45 -13 -99 -23
-107 -15 -12 -91 -113 -91 -121 0 -17 22 -9 42 16 11 14 24 23 28 20 12 -7 58
65 87 135 21 54 22 107 0 93 -6 -3 -7 -1 -3 6 11 17 -18 57 -56 76 -54 27 -65
26 -79 -7 -21 -52 -98 -85 -127 -56 -8 8 -12 8 -12 1 0 -12 -55 -36 -105 -47
-28 -6 -33 -3 -47 27 -15 32 -15 34 6 47 11 7 38 13 58 11 30 -1 37 1 32 14
-3 8 -1 15 5 15 6 0 11 5 11 10 0 6 -7 10 -16 10 -15 0 -15 2 0 25 15 23 15
25 -1 25 -10 0 -27 3 -38 6 -14 3 -28 -2 -40 -16z m295 -117 c0 -21 -3 -24 -9
-14 -5 8 -7 20 -4 28 8 21 13 15 13 -14z m-130 -110 c0 -25 -6 -48 -16 -57 -8
-9 -13 -20 -9 -25 3 -6 -3 -15 -13 -20 -17 -9 -21 -5 -30 27 -6 20 -14 58 -17
83 -7 45 -6 46 27 55 42 13 57 -4 58 -63z m230 -12 c-29 -42 -36 -39 -8 3 13
19 24 33 26 31 3 -2 -6 -18 -18 -34z m-150 -241 c0 -15 -42 -60 -51 -54 -5 3
-3 12 5 20 8 8 13 23 11 33 -3 14 1 18 16 14 10 -3 19 -9 19 -13z m-67 -77
c-7 -2 -19 -2 -25 0 -7 3 -2 5 12 5 14 0 19 -2 13 -5z m-3 -18 c0 -10 -48 -80
-63 -94 -9 -7 -21 -10 -26 -6 -6 3 -27 -7 -46 -22 -38 -30 -47 -50 -16 -33 12
6 22 6 25 1 9 -14 -64 -70 -106 -82 -20 -5 -44 -16 -53 -25 -13 -14 -15 -13
-15 5 0 12 5 21 10 21 6 0 10 7 10 15 0 18 12 19 27 4 7 -7 15 0 27 25 20 43
30 48 16 9 -9 -25 -8 -26 3 -11 8 10 17 15 20 12 3 -3 3 3 0 14 -6 26 70 132
96 132 30 0 81 21 75 31 -3 5 0 9 5 9 6 0 11 -2 11 -5z m-280 -190 c0 -11 -66
-45 -85 -44 -12 0 -4 6 20 15 22 8 44 19 49 24 11 11 16 13 16 5z"
          />
          <path d="M1295 3111 c-3 -5 -1 -12 5 -16 5 -3 10 1 10 9 0 18 -6 21 -15 7z" />
          <path
            d="M1290 3342 c0 -10 -7 -28 -16 -40 -9 -13 -11 -22 -4 -22 6 0 16 12
23 28 6 15 15 30 20 33 5 3 2 9 -7 12 -11 4 -16 1 -16 -11z"
          />
          <path d="M1338 3353 c6 -2 18 -2 25 0 6 3 1 5 -13 5 -14 0 -19 -2 -12 -5z" />
          <path d="M2366 3343 c-6 -14 -5 -15 5 -6 7 7 10 15 7 18 -3 3 -9 -2 -12 -12z" />
          <path d="M1911 3334 c0 -11 3 -14 6 -6 3 7 2 16 -1 19 -3 4 -6 -2 -5 -13z" />
          <path
            d="M2669 3334 c-8 -10 -12 -37 -11 -77 3 -75 12 -89 12 -19 0 28 5 63
10 78 13 32 8 40 -11 18z"
          />
          <path
            d="M1362 3306 c-32 -22 -53 -30 -56 -22 -2 6 -5 -4 -5 -22 l-1 -33 32
37 c39 44 93 70 113 54 9 -8 14 -6 19 5 10 28 -49 17 -102 -19z"
          />
          <path
            d="M1120 3315 c0 -8 9 -19 20 -25 11 -6 20 -8 20 -5 0 3 -9 14 -20 25
-15 15 -20 16 -20 5z"
          />
          <path
            d="M2074 3298 c-31 -34 -67 -81 -47 -63 21 20 85 95 81 95 -2 0 -18 -15
-34 -32z"
          />
          <path
            d="M2238 3312 c-12 -15 -11 -16 5 -3 15 12 17 11 17 -2 0 -9 -5 -19 -10
-22 -13 -8 -100 -156 -100 -170 0 -5 15 15 33 45 18 31 47 76 65 102 17 26 32
49 32 51 0 14 -30 13 -42 -1z"
          />
          <path
            d="M1081 3307 c-6 -8 -23 -12 -40 -9 -16 2 -31 0 -34 -5 -3 -5 7 -8 21
-7 15 0 29 -2 32 -6 3 -4 13 3 23 16 19 25 18 34 -2 11z"
          />
          <path
            d="M1378 3278 c-32 -21 -58 -46 -58 -54 0 -12 6 -11 30 8 106 80 124
111 28 46z"
          />
          <path d="M2335 3289 c-4 -6 -5 -12 -2 -15 2 -3 7 2 10 11 7 17 1 20 -8 4z" />
          <path
            d="M800 3271 c0 -26 44 -91 62 -91 6 0 2 10 -10 23 -11 12 -28 38 -36
57 -13 30 -15 32 -16 11z"
          />
          <path
            d="M2204 3268 c-11 -13 -35 -43 -53 -68 l-33 -45 36 40 c40 44 80 95 73
95 -2 0 -12 -10 -23 -22z"
          />
          <path
            d="M1265 3260 c3 -5 8 -10 11 -10 2 0 4 5 4 10 0 6 -5 10 -11 10 -5 0
-7 -4 -4 -10z"
          />
          <path d="M2643 3230 c0 -25 2 -35 4 -22 2 12 2 32 0 45 -2 12 -4 2 -4 -23z" />
          <path
            d="M2403 3238 c-15 -20 -25 -38 -20 -38 3 0 12 11 21 25 17 26 16 35 -1
13z"
          />
          <path
            d="M2275 3180 c-9 -16 -13 -30 -11 -30 3 0 12 14 21 30 9 17 13 30 11
30 -3 0 -12 -13 -21 -30z"
          />
          <path d="M1088 3183 c7 -3 16 -2 19 1 4 3 -2 6 -13 5 -11 0 -14 -3 -6 -6z" />
          <path d="M2561 3174 c0 -11 3 -14 6 -6 3 7 2 16 -1 19 -3 4 -6 -2 -5 -13z" />
          <path
            d="M2651 3175 c-1 -5 6 -28 14 -50 8 -22 14 -33 15 -24 0 9 -7 32 -15
50 -8 19 -14 30 -14 24z"
          />
          <path
            d="M2671 3175 c0 -5 8 -26 19 -45 11 -19 19 -30 19 -25 0 6 -8 26 -19
45 -11 19 -19 31 -19 25z"
          />
          <path
            d="M1490 3160 c0 -5 5 -10 10 -10 6 0 10 5 10 10 0 6 -4 10 -10 10 -5 0
-10 -4 -10 -10z"
          />
          <path d="M2721 3144 c0 -11 3 -14 6 -6 3 7 2 16 -1 19 -3 4 -6 -2 -5 -13z" />
          <path
            d="M1395 3140 c3 -5 8 -10 11 -10 2 0 4 5 4 10 0 6 -5 10 -11 10 -5 0
-7 -4 -4 -10z"
          />
          <path
            d="M2588 3126 c27 -36 28 -56 2 -89 -11 -14 -20 -31 -20 -39 0 -21 49
65 50 88 0 11 -12 31 -27 45 l-27 24 22 -29z"
          />
          <path
            d="M850 3110 c-11 -7 -6 -10 20 -10 26 0 31 3 20 10 -8 5 -17 10 -20 10
-3 0 -12 -5 -20 -10z"
          />
          <path d="M841 3064 c0 -11 3 -14 6 -6 3 7 2 16 -1 19 -3 4 -6 -2 -5 -13z" />
          <path d="M2711 3064 c0 -11 3 -14 6 -6 3 7 2 16 -1 19 -3 4 -6 -2 -5 -13z" />
          <path
            d="M2662 3037 c-17 -47 -14 -59 4 -18 8 19 13 39 12 43 -2 5 -9 -6 -16
-25z"
          />
          <path d="M2742 3045 c0 -16 2 -22 5 -12 2 9 2 23 0 30 -3 6 -5 -1 -5 -18z" />
          <path
            d="M895 3033 c-5 -5 -17 -17 -25 -28 -15 -20 -14 -20 8 -1 29 25 37 15
18 -23 -9 -16 -16 -36 -16 -43 0 -7 9 6 20 30 15 34 24 42 47 43 26 2 25 2 -7
9 l-35 7 33 2 c18 0 42 -4 53 -9 14 -8 19 -7 19 3 0 15 -97 23 -115 10z"
          />
          <path
            d="M2761 3013 c-1 -6 -4 -20 -7 -30 -5 -17 -5 -17 6 0 6 10 9 23 6 30
-3 9 -5 9 -5 0z"
          />
          <path
            d="M2726 2995 c-3 -9 -6 -22 -5 -28 0 -7 5 -1 10 12 5 13 8 26 5 28 -2
2 -6 -3 -10 -12z"
          />
          <path
            d="M2570 2973 c0 -6 7 -16 16 -24 10 -8 14 -24 12 -45 -3 -26 -1 -31 9
-23 7 6 12 26 11 45 -1 19 -4 30 -8 23 -5 -7 -13 -3 -24 12 -9 13 -16 18 -16
12z"
          />
          <path d="M2682 2960 c0 -14 2 -19 5 -12 2 6 2 18 0 25 -3 6 -5 1 -5 -13z" />
          <path
            d="M3436 2964 c-20 -19 -21 -43 -2 -50 8 -3 12 -13 9 -25 -4 -12 0 -19
10 -19 8 0 21 -7 28 -16 7 -9 61 -40 119 -68 103 -51 176 -98 255 -163 22 -18
36 -33 31 -33 -17 0 -142 71 -176 100 -19 16 -40 30 -47 30 -7 0 -17 9 -23 21
-10 17 -14 18 -28 7 -9 -7 -14 -9 -10 -4 9 11 -61 47 -75 39 -6 -3 -7 -1 -3 5
4 7 1 12 -6 12 -20 1 -60 38 -53 50 3 5 -1 10 -10 10 -9 0 -13 -4 -10 -10 3
-6 -1 -7 -9 -4 -9 3 -13 11 -9 18 5 8 3 8 -8 0 -8 -7 -27 -11 -42 -9 -18 2
-36 -4 -47 -15 -10 -10 -21 -16 -23 -13 -3 2 -13 -7 -23 -21 -16 -25 -16 -28
1 -46 16 -18 16 -20 -4 -49 -20 -28 -21 -32 -7 -60 9 -16 27 -38 41 -49 14
-11 25 -23 25 -26 0 -16 -23 -1 -91 59 -61 54 -75 62 -80 48 -6 -16 -7 -16
-11 2 -5 17 -6 18 -7 2 -2 -31 18 -57 73 -92 28 -18 58 -40 66 -50 16 -19 63
-45 82 -45 7 0 -5 9 -27 19 -35 16 -99 71 -82 71 3 0 22 -10 42 -22 31 -17 38
-19 46 -7 6 9 9 10 9 2 0 -7 7 -10 18 -7 14 5 14 4 2 -4 -8 -6 -18 -8 -22 -6
-4 3 -8 0 -8 -5 0 -12 27 -10 48 2 7 5 12 3 12 -5 1 -18 48 -51 61 -42 6 3 10
-1 9 -12 -1 -11 -2 -27 -1 -36 1 -20 56 -52 73 -42 6 4 8 3 4 -4 -4 -6 13 -22
41 -39 27 -15 72 -47 101 -70 29 -24 70 -52 92 -63 47 -24 162 -52 172 -42 4
4 -4 8 -17 8 -13 1 -32 10 -42 19 -16 17 -16 17 7 11 60 -18 62 -18 56 -7 -4
6 -11 11 -16 11 -5 0 -21 5 -36 11 l-28 10 27 18 c15 10 24 21 20 24 -3 4 -1
7 4 7 6 0 14 -6 16 -12 4 -10 6 -10 6 -1 1 9 10 8 36 -3 19 -7 47 -14 62 -13
22 1 18 4 -17 12 -44 11 -44 11 -13 15 18 2 41 -2 52 -7 13 -8 22 -8 26 -1 3
6 -13 19 -37 29 -24 10 -83 44 -133 76 -49 32 -112 71 -139 88 -26 17 -43 33
-38 35 12 4 92 -47 92 -58 0 -12 28 -20 44 -14 8 3 12 12 10 19 -4 10 3 13 30
9 27 -3 36 -1 36 11 0 8 -5 15 -11 15 -5 0 -7 5 -3 11 4 8 11 6 21 -3 11 -12
12 -20 2 -41 -10 -22 -9 -31 7 -54 10 -15 19 -32 19 -38 0 -5 7 -10 15 -11 28
-1 75 -17 82 -28 5 -7 8 -3 9 9 7 73 6 75 -15 76 -20 1 -20 2 -1 6 11 3 26 10
33 15 9 8 17 6 30 -5 15 -13 21 -14 50 -2 17 8 33 20 33 27 2 22 -2 43 -11 52
-5 5 -6 -1 -3 -13 5 -20 -4 -17 -98 29 -117 57 -214 118 -304 193 -73 59 -325
191 -339 177 -6 -6 -15 -10 -20 -10 -6 0 -3 7 6 14 17 12 17 14 -2 31 -11 10
-20 22 -20 27 0 11 37 10 45 -2 4 -6 -1 -7 -12 -4 -15 5 -16 4 -3 -5 23 -16
37 -13 43 9 4 17 0 20 -33 20 -22 0 -45 -7 -54 -16z m9 -23 c3 -5 1 -12 -5
-16 -5 -3 -10 1 -10 9 0 18 6 21 15 7z m73 -78 c26 -17 26 -17 13 0 -13 17
-13 17 13 6 17 -8 22 -15 15 -20 -8 -4 -4 -9 10 -14 11 -3 21 -11 21 -16 0
-14 -16 -11 -30 6 -7 8 -18 15 -24 15 -13 0 -65 39 -53 40 4 0 20 -8 35 -17z
m-128 -29 c0 -8 4 -13 9 -10 5 4 7 -2 4 -13 -3 -10 1 -22 8 -26 8 -6 10 -4 4
5 -5 9 -4 11 4 6 6 -4 9 -11 6 -16 -8 -12 57 -71 73 -65 7 2 10 1 7 -4 -3 -5
4 -12 15 -16 11 -4 18 -10 15 -14 -2 -5 3 -8 13 -8 49 0 59 -5 84 -48 27 -44
24 -62 -3 -29 -7 9 -46 32 -85 50 -39 19 -102 61 -139 94 -37 33 -72 60 -76
60 -16 0 4 32 25 40 31 13 36 12 36 -6z m304 -45 c13 -6 27 -20 29 -31 3 -10
2 -18 -1 -16 -61 30 -82 43 -82 50 0 11 25 10 54 -3z m-374 -34 c7 -8 19 -15
28 -15 8 0 34 -16 58 -35 24 -20 66 -45 94 -57 27 -11 47 -24 45 -28 -3 -5 1
-10 7 -13 7 -2 11 -7 8 -10 -3 -4 -54 24 -112 61 -121 77 -168 111 -152 112 6
0 17 -7 24 -15z m351 -52 c16 -10 29 -21 29 -25 0 -4 4 -8 10 -8 13 0 89 -53
90 -62 0 -4 -7 -4 -17 -1 -11 4 -14 3 -9 -6 6 -9 -6 -11 -50 -9 -55 3 -58 4
-79 42 -12 22 -31 43 -41 47 -18 7 -18 8 -1 8 10 1 15 5 12 11 -4 6 1 7 11 3
12 -4 15 -3 10 5 -10 17 1 15 35 -5z m-74 1 c-3 -3 -12 -4 -19 -1 -8 3 -5 6 6
6 11 1 17 -2 13 -5z m238 -26 l18 -32 -31 23 c-18 12 -30 27 -27 32 10 16 20
10 40 -23z m-636 -43 c3 -17 2 -17 -13 -3 -19 20 -21 31 -3 26 6 -3 14 -13 16
-23z m119 -21 c-4 -3 -12 5 -18 18 -12 22 -12 22 6 6 10 -10 15 -20 12 -24z
m172 -14 c-8 -5 -19 -10 -25 -10 -5 0 -3 5 5 10 8 5 20 10 25 10 6 0 3 -5 -5
-10z m390 -22 c30 -15 68 -30 83 -33 33 -7 72 -45 80 -78 6 -20 5 -20 -7 -4
-23 30 -25 21 -14 -60 1 -7 5 -10 10 -7 4 3 3 14 -3 25 -6 12 -9 23 -6 25 8 8
87 -49 87 -64 0 -14 -10 -14 -71 0 -46 11 -70 59 -44 89 15 15 16 21 5 34 -16
19 -56 42 -46 27 11 -17 -36 -42 -79 -42 -44 0 -91 26 -112 62 l-14 23 5 -25
5 -25 -19 25 -19 25 42 5 c23 3 48 1 56 -5 12 -8 12 -6 2 14 -7 13 -9 22 -4
19 4 -2 33 -15 63 -30z m187 -35 c29 -14 51 -29 48 -33 -3 -4 2 -10 10 -14 8
-3 15 -10 15 -16 0 -11 -161 69 -200 100 l-25 19 50 -16 c28 -8 74 -27 102
-40z m-657 27 c8 -5 11 -10 5 -10 -5 0 -17 5 -25 10 -8 5 -10 10 -5 10 6 0 17
-5 25 -10z m85 -11 c6 -17 13 -20 38 -16 33 6 69 -3 68 -16 -5 -43 -1 -48 33
-41 19 3 43 1 53 -4 16 -9 15 -11 -10 -17 -15 -4 -43 -4 -62 -1 -19 4 -35 3
-35 -1 0 -5 -19 -7 -42 -5 -42 4 -43 4 -44 42 -1 21 -7 46 -13 56 -9 16 -10
13 -11 -18 0 -43 -9 -47 -35 -18 -20 22 -18 26 17 46 32 17 36 17 43 -7z m345
-120 c92 -60 136 -95 137 -108 1 -16 -10 -11 -62 27 -117 86 -171 122 -205
140 -36 18 -55 47 -23 35 10 -3 79 -46 153 -94z m228 44 c15 -18 22 -22 18
-10 -5 15 -2 16 14 7 30 -16 33 -29 6 -36 -31 -7 -41 -1 -60 36 -18 37 -9 38
22 3z m107 -23 c4 -6 10 -8 15 -5 5 3 11 1 15 -5 3 -5 0 -10 -7 -10 -18 0 -57
29 -41 30 6 0 15 -5 18 -10z m-449 -37 c9 -18 21 -33 26 -33 16 0 23 -2 41
-12 10 -5 16 -12 13 -15 -3 -3 -11 -2 -19 3 -17 12 13 -15 49 -43 27 -22 27
-23 6 -23 -12 0 -22 4 -22 9 0 5 -18 18 -40 29 -48 23 -55 12 -7 -13 17 -9 43
-23 56 -30 16 -9 32 -10 46 -5 23 9 35 4 35 -12 0 -4 -5 -8 -12 -8 -6 0 -19
-7 -28 -15 -15 -13 -22 -14 -46 -3 -16 7 -33 18 -39 24 -5 6 -30 25 -55 42
-25 16 -55 40 -67 51 -13 12 -23 19 -23 16 0 -8 -60 24 -90 48 l-25 19 32 -6
c17 -4 33 -4 36 1 3 4 30 8 60 8 52 0 56 -2 73 -32z m14 -136 c15 -10 19 -17
10 -17 -15 0 -90 65 -90 78 0 3 12 -6 28 -20 15 -14 38 -32 52 -41z"
          />
          <path
            d="M3664 2665 c20 -14 51 -32 69 -41 28 -15 30 -15 19 -1 -13 15 -104
67 -118 67 -4 0 10 -11 30 -25z"
          />
          <path d="M3991 2444 c0 -11 3 -14 6 -6 3 7 2 16 -1 19 -3 4 -6 -2 -5 -13z" />
          <path
            d="M3616 2415 c4 -8 11 -15 16 -15 6 0 5 6 -2 15 -7 8 -14 15 -16 15 -2
0 -1 -7 2 -15z"
          />
          <path
            d="M3687 2410 c8 -30 21 -34 15 -5 -2 14 -8 25 -12 25 -5 0 -6 -9 -3
-20z"
          />
          <path
            d="M3575 2970 l-40 -6 28 -12 c15 -6 27 -18 27 -27 0 -19 17 -19 37 0
11 12 12 19 4 29 -9 11 -9 15 1 19 17 7 -6 6 -57 -3z"
          />
          <path
            d="M1070 2955 c0 -8 7 -15 15 -15 9 0 12 6 9 15 -4 8 -10 15 -15 15 -5
0 -9 -7 -9 -15z"
          />
          <path
            d="M3650 2965 c0 -2 10 -14 23 -25 20 -19 29 -21 90 -15 46 5 67 4 67
-4 0 -6 18 -11 43 -11 60 0 93 -18 116 -66 12 -23 21 -46 21 -51 0 -6 12 -26
28 -46 15 -19 33 -43 40 -53 7 -11 10 -12 6 -4 -5 10 -1 9 14 -4 20 -18 21
-43 1 -30 -5 3 -7 10 -4 15 3 5 -1 6 -9 3 -12 -4 -13 -11 -6 -24 5 -9 7 -20 4
-22 -3 -3 2 -8 10 -11 9 -4 16 3 21 20 6 24 7 25 21 7 14 -18 14 -17 3 5 -6
14 -31 46 -55 71 -24 26 -55 71 -68 101 -13 31 -40 70 -60 87 -31 27 -45 32
-89 32 -29 0 -79 7 -112 15 -60 14 -105 19 -105 10z"
          />
          <path
            d="M2720 2920 c-6 -11 -8 -20 -6 -20 3 0 10 9 16 20 6 11 8 20 6 20 -3
0 -10 -9 -16 -20z"
          />
          <path
            d="M1273 2911 c-10 -15 -9 -20 2 -24 15 -6 30 22 18 34 -5 5 -14 0 -20
-10z"
          />
          <path d="M2662 2905 c0 -16 2 -22 5 -12 2 9 2 23 0 30 -3 6 -5 -1 -5 -18z" />
          <path
            d="M3600 2870 c0 -5 5 -10 10 -10 6 0 10 5 10 10 0 6 -4 10 -10 10 -5 0
-10 -4 -10 -10z"
          />
          <path d="M1028 2803 c7 -3 16 -2 19 1 4 3 -2 6 -13 5 -11 0 -14 -3 -6 -6z" />
          <path
            d="M2455 2800 c6 -9 4 -11 -4 -5 -21 12 -98 -24 -131 -61 -16 -19 -30
-38 -31 -42 -1 -4 -2 -26 -4 -49 -2 -38 0 -43 18 -43 15 0 18 -3 10 -11 -15
-15 -46 -18 -60 -6 -9 7 -13 5 -13 -7 0 -10 4 -15 9 -11 16 9 20 -9 11 -48 -6
-28 -5 -37 5 -37 8 0 17 -5 21 -12 5 -8 1 -9 -12 -5 -18 6 -18 6 -1 -6 41 -27
43 -32 39 -89 -2 -32 -7 -58 -12 -58 -17 0 -51 74 -46 99 5 26 5 26 -6 3 -9
-19 -8 -30 9 -62 l20 -40 -45 -47 c-52 -57 -66 -79 -52 -88 5 -3 18 12 30 34
20 39 67 91 83 91 12 0 -3 -73 -19 -91 -8 -8 -14 -21 -14 -27 0 -7 -4 -12 -9
-12 -5 0 -12 -8 -15 -17 -6 -14 -4 -14 14 2 21 19 21 19 46 -13 14 -18 39 -39
56 -48 52 -27 205 -47 368 -48 132 0 166 3 230 22 47 14 84 32 100 48 20 22
21 25 6 20 -16 -5 -17 -4 -6 9 8 10 21 13 39 9 l26 -6 -25 18 c-13 10 -34 18
-45 19 -12 0 -21 8 -23 20 -2 12 0 16 5 9 4 -6 22 -14 38 -18 35 -7 43 -10 68
-21 10 -4 21 -5 24 -1 4 3 -2 6 -11 6 -12 0 -16 5 -12 15 5 14 -59 85 -78 85
-5 0 8 -17 29 -37 45 -43 34 -53 -32 -28 -46 18 -43 18 -107 -14 -5 -2 -6 0
-3 6 3 5 -17 9 -51 8 -67 -2 -105 -12 -96 -27 4 -6 -2 -6 -15 1 -17 10 -21 9
-21 -3 0 -21 -57 -45 -104 -44 -37 0 -45 4 -81 36 -18 16 -26 15 -19 -3 4 -8
12 -15 19 -15 7 0 18 -7 25 -15 7 -8 21 -15 32 -15 14 0 18 -5 14 -15 -3 -8
-2 -14 2 -14 4 1 21 1 37 0 23 -1 27 -3 15 -11 -20 -13 -102 -12 -195 1 -76
12 -97 25 -47 31 24 3 22 5 -20 20 -26 9 -50 13 -52 9 -6 -9 -52 -8 -62 1 -3
4 1 17 10 30 19 27 21 58 4 58 -24 0 33 32 64 35 38 5 59 -6 32 -16 -11 -4 2
-6 31 -4 71 4 72 4 50 17 -19 11 -18 12 9 19 16 5 37 4 46 -1 18 -10 80 8 80
22 0 5 -13 2 -30 -7 -42 -22 -38 -11 6 14 37 22 84 28 84 11 0 -5 5 -10 11
-10 8 0 8 4 -1 15 -6 8 -9 19 -5 25 8 13 62 13 70 0 3 -5 13 -6 22 -3 15 6 14
7 -3 14 -18 7 -17 8 3 8 12 1 25 6 28 11 7 11 48 13 59 3 13 -14 101 -43 128
-43 15 0 30 5 33 10 4 7 -2 9 -19 4 -14 -3 -38 -2 -53 2 -24 7 -19 9 32 14
l60 5 44 -45 c28 -29 38 -35 26 -17 -17 27 -17 28 1 41 17 13 16 14 -10 9 -24
-5 -34 -1 -53 23 -13 16 -21 21 -17 11 6 -16 0 -18 -69 -16 -42 2 -74 6 -71
10 2 4 -4 5 -15 2 -27 -7 -34 11 -11 32 11 10 20 25 20 34 0 13 2 13 9 2 7
-10 13 -11 30 -2 25 14 26 24 4 42 -15 13 -16 12 -11 -9 4 -12 2 -20 -3 -17
-5 4 -8 17 -7 30 2 22 4 23 17 10 13 -12 16 -12 26 1 9 13 13 9 24 -26 7 -23
14 -40 17 -38 2 2 0 19 -5 36 -5 18 -8 32 -6 32 12 0 55 -57 55 -72 0 -10 4
-17 9 -16 4 2 18 -8 29 -22 30 -35 27 -21 -3 20 -27 37 -26 51 2 29 16 -13 17
-12 4 4 -7 9 -19 17 -26 17 -7 0 -18 7 -25 15 -10 12 -10 15 1 15 12 0 12 2 1
9 -19 12 -17 22 10 35 17 9 23 20 22 43 -2 41 -43 101 -55 81 -8 -12 -13 -5
-10 14 2 12 -74 59 -77 48 -2 -5 -11 -10 -20 -10 -9 0 4 -14 30 -30 36 -23 45
-33 41 -50 -3 -11 0 -20 6 -20 6 0 11 7 11 15 0 25 14 17 38 -21 17 -27 21
-39 13 -47 -12 -12 -212 -17 -205 -6 2 4 -17 9 -43 13 -62 8 -75 8 -68 -3 6
-11 -77 -26 -97 -18 -7 3 1 6 18 6 16 1 39 7 49 15 18 13 15 14 -30 14 -28 1
-70 5 -95 11 -57 13 -103 14 -95 2 3 -6 14 -8 25 -6 12 2 18 0 15 -6 -4 -5
-11 -7 -16 -4 -5 4 -9 0 -9 -7 0 -8 -5 -6 -11 5 -9 15 -13 16 -27 6 -14 -11
-15 -11 -4 1 16 19 15 27 -3 27 -8 0 -15 -5 -15 -11 0 -6 -4 -5 -9 3 -5 8 -15
16 -23 17 -7 1 -28 6 -47 10 -23 5 -32 4 -28 -4 4 -6 0 -9 -10 -7 -10 2 -21 4
-25 4 -5 1 -8 6 -8 12 0 8 5 8 15 -1 9 -8 15 -8 15 -2 0 6 3 18 7 28 5 12 3
15 -6 9 -9 -5 -12 -2 -9 11 3 16 15 20 72 24 65 5 69 6 53 22 -13 13 -14 19
-5 25 7 4 97 8 201 7 111 0 183 4 178 9 -5 5 -93 11 -197 15 -152 4 -186 3
-179 -8z m-60 -181 c-8 -12 -92 -12 -100 1 -3 5 10 8 34 5 22 -2 43 0 46 6 4
5 11 7 16 3 5 -3 7 -10 4 -15z m37 7 c7 4 8 2 4 -5 -9 -13 -26 -5 -25 12 0 9
2 8 6 -1 2 -6 10 -9 15 -6z m178 -41 c0 -8 -6 -12 -14 -9 -8 3 -12 12 -9 20 6
17 23 9 23 -11z m-295 -28 c15 5 15 3 -3 -15 -12 -12 -22 -26 -22 -31 0 -14
41 -41 60 -40 8 0 2 5 -13 11 -28 10 -35 43 -10 43 7 0 19 9 28 20 9 11 13 14
9 6 -5 -10 -3 -13 8 -9 8 4 21 2 29 -4 11 -8 9 -8 -6 -4 -20 6 -20 6 0 -9 26
-20 84 -36 141 -37 37 0 43 -3 32 -13 -18 -17 -141 -55 -175 -54 l-28 1 25 7
c23 7 21 8 -15 14 -76 13 -133 69 -95 92 8 5 7 12 -2 23 -11 15 -11 15 3 4 9
-7 25 -9 34 -5z m422 -3 c-3 -3 -12 -4 -19 -1 -8 3 -5 6 6 6 11 1 17 -2 13 -5z
m-406 -109 c19 -8 27 -14 19 -14 -14 0 -72 28 -59 29 4 0 22 -7 40 -15z m289
-31 c0 -2 -8 -1 -17 2 -16 5 -15 3 1 -10 25 -20 18 -27 -33 -31 -40 -3 -71
-19 -71 -36 0 -5 7 -6 15 -3 8 4 15 1 15 -6 0 -7 8 -10 20 -7 11 3 20 1 20 -4
0 -5 -4 -9 -9 -9 -5 0 -24 -2 -42 -5 -30 -4 -31 -4 -9 5 18 7 9 8 -34 4 -33
-3 -70 -10 -83 -15 -16 -6 -22 -5 -18 1 3 6 1 10 -4 10 -6 0 -11 -5 -11 -12 0
-6 -3 -8 -7 -5 -10 11 -33 -13 -33 -34 0 -11 -4 -19 -10 -19 -14 0 -13 23 2
38 6 6 11 32 11 56 0 25 4 43 8 40 4 -2 13 2 21 9 8 8 49 17 102 21 70 5 93
10 105 25 14 17 17 17 38 4 13 -9 23 -17 23 -19z m100 -24 c0 -5 -5 -10 -11
-10 -5 0 -7 5 -4 10 3 6 8 10 11 10 2 0 4 -4 4 -10z m-104 -55 c-11 -8 -25
-15 -30 -15 -6 1 0 7 14 15 32 19 40 18 16 0z m-131 -55 c3 -5 2 -10 -4 -10
-5 0 -13 5 -16 10 -3 6 -2 10 4 10 5 0 13 -4 16 -10z m525 -86 c0 -8 -4 -12
-10 -9 -5 3 -10 10 -10 16 0 5 5 9 10 9 6 0 10 -7 10 -16z m-125 -4 c-3 -5 1
-10 10 -10 10 0 13 5 9 12 -4 7 -3 8 5 4 6 -4 9 -12 6 -17 -6 -9 21 -14 58
-11 20 2 50 -22 40 -32 -4 -3 -1 -6 7 -6 10 0 10 -3 0 -15 -7 -8 -18 -15 -24
-15 -6 0 -4 4 4 10 31 19 -1 21 -52 2 -95 -35 -174 -39 -163 -9 3 7 1 18 -4
26 -6 10 -13 11 -29 2 -33 -17 -37 -13 -11 12 16 14 32 21 48 18 15 -2 29 3
37 14 7 10 20 15 28 12 9 -4 18 -2 21 3 4 6 8 10 11 10 3 0 2 -4 -1 -10z"
          />
          <path
            d="M2435 2470 l-70 -6 70 -2 c39 -1 77 3 85 8 13 9 13 10 0 8 -8 -1 -46
-4 -85 -8z"
          />
          <path
            d="M2885 2775 c17 -8 37 -14 45 -14 8 0 2 7 -15 14 -16 8 -37 14 -45 14
-8 0 -1 -7 15 -14z"
          />
          <path d="M2490 2754 c0 -17 22 -14 28 4 2 7 -3 12 -12 12 -9 0 -16 -7 -16 -16z" />
          <path
            d="M2710 2755 c0 -8 7 -15 15 -15 8 0 15 7 15 15 0 8 -7 15 -15 15 -8 0
-15 -7 -15 -15z"
          />
          <path
            d="M2852 2758 c6 -18 28 -21 28 -4 0 9 -7 16 -16 16 -9 0 -14 -5 -12
-12z"
          />
          <path d="M3818 2763 c7 -3 16 -2 19 1 4 3 -2 6 -13 5 -11 0 -14 -3 -6 -6z" />
          <path
            d="M3932 2753 c2 -10 11 -19 21 -21 16 -3 17 -1 5 17 -16 25 -31 27 -26
4z"
          />
          <path
            d="M2615 2750 c-8 -13 4 -32 16 -25 12 8 12 35 0 35 -6 0 -13 -4 -16
-10z"
          />
          <path d="M2792 2751 c2 -7 7 -12 11 -12 12 1 9 15 -3 20 -7 2 -11 -2 -8 -8z" />
          <path d="M2525 2729 c-4 -6 -4 -13 -1 -16 8 -8 36 5 36 17 0 13 -27 13 -35 -1z" />
          <path
            d="M905 2720 c3 -5 8 -10 11 -10 2 0 4 5 4 10 0 6 -5 10 -11 10 -5 0 -7
-4 -4 -10z"
          />
          <path d="M2883 2715 c-3 -9 -3 -18 0 -21 9 -9 27 6 27 22 0 19 -19 18 -27 -1z" />
          <path
            d="M3190 2720 c-20 -6 -21 -8 -5 -8 11 0 31 4 45 8 20 6 21 8 5 8 -11 0
-31 -4 -45 -8z"
          />
          <path
            d="M3850 2720 c0 -5 5 -10 10 -10 6 0 10 5 10 10 0 6 -4 10 -10 10 -5 0
-10 -4 -10 -10z"
          />
          <path
            d="M990 2712 c-17 -8 -25 -32 -10 -32 5 0 14 9 20 20 6 11 9 20 8 19 -2
0 -10 -3 -18 -7z"
          />
          <path
            d="M2686 2711 c-7 -10 18 -34 27 -25 7 8 -3 34 -13 34 -5 0 -11 -4 -14
-9z"
          />
          <path d="M2394 2696 c-8 -22 3 -33 18 -18 9 9 9 15 0 24 -9 9 -13 7 -18 -6z" />
          <path d="M2467 2686 c-3 -8 -3 -17 0 -20 7 -7 33 13 33 25 0 15 -27 10 -33 -5z" />
          <path
            d="M2590 2673 c0 -25 15 -38 25 -22 4 6 0 18 -9 27 -15 15 -16 15 -16
-5z"
          />
          <path d="M2787 2676 c-6 -15 1 -26 15 -26 11 0 10 27 -1 34 -5 3 -11 0 -14 -8z" />
          <path
            d="M1045 2650 c3 -5 8 -10 11 -10 2 0 4 5 4 10 0 6 -5 10 -11 10 -5 0
-7 -4 -4 -10z"
          />
          <path
            d="M2672 2643 c2 -9 9 -18 16 -21 18 -6 15 25 -4 32 -11 4 -14 1 -12
-11z"
          />
          <path
            d="M2950 2639 c0 -11 5 -17 10 -14 6 3 10 13 10 21 0 8 -4 14 -10 14 -5
0 -10 -9 -10 -21z"
          />
          <path
            d="M2852 2633 c5 -25 28 -28 28 -4 0 12 -6 21 -16 21 -9 0 -14 -7 -12
-17z"
          />
          <path d="M800 2601 c0 -25 6 -27 13 -6 4 8 2 17 -3 20 -6 4 -10 -3 -10 -14z" />
          <path
            d="M4169 2582 c5 -9 19 -26 32 -37 19 -16 18 -13 -5 18 -30 39 -43 49
-27 19z"
          />
          <path
            d="M842 2583 c-6 -2 -10 -9 -6 -14 8 -14 50 -11 64 6 11 13 8 15 -16 14
-16 0 -35 -3 -42 -6z"
          />
          <path
            d="M2215 2541 c-4 -7 0 -8 11 -4 10 4 15 2 11 -3 -3 -6 -1 -16 4 -24 7
-11 8 -9 6 9 -4 27 -21 38 -32 22z"
          />
          <path
            d="M4190 2520 c0 -5 5 -10 11 -10 5 0 7 5 4 10 -3 6 -8 10 -11 10 -2 0
-4 -4 -4 -10z"
          />
          <path
            d="M3110 2503 c8 -3 19 -11 23 -17 6 -7 7 -6 4 4 -2 8 -12 16 -23 17
-13 2 -15 1 -4 -4z"
          />
          <path
            d="M3933 2440 c6 -16 15 -30 18 -30 8 0 6 16 -6 43 -13 30 -24 18 -12
-13z"
          />
          <path
            d="M2940 2439 c0 -5 5 -7 10 -4 6 3 10 8 10 11 0 2 -4 4 -10 4 -5 0 -10
-5 -10 -11z"
          />
          <path
            d="M3023 2427 c5 -13 1 -17 -16 -18 -16 -1 -18 -2 -5 -6 10 -2 24 -1 32
4 12 7 12 10 -2 23 -14 13 -15 12 -9 -3z"
          />
          <path d="M3156 2423 c-4 -9 -3 -20 1 -24 4 -4 9 3 9 17 2 28 -1 31 -10 7z" />
          <path
            d="M1124 2394 c3 -8 -3 -18 -12 -23 -16 -10 -16 -10 0 -11 9 0 18 -6 20
-12 5 -15 30 6 40 33 5 13 -1 18 -23 21 -22 3 -28 1 -25 -8z"
          />
          <path
            d="M2161 2376 c-9 -10 -9 -16 -1 -21 6 -4 8 -16 5 -28 -5 -20 -5 -20 5
-4 9 13 9 22 0 32 -9 10 -7 16 7 24 10 6 13 11 7 11 -6 0 -17 -6 -23 -14z"
          />
          <path
            d="M920 2314 c5 -19 4 -32 -1 -28 -5 3 -9 2 -10 -3 -2 -23 -10 -57 -14
-62 -3 -2 3 -14 13 -25 10 -12 26 -41 36 -66 18 -50 28 -64 71 -100 l30 -25
-26 30 c-44 51 -67 98 -74 150 -4 28 -9 59 -12 70 -5 18 -3 18 15 -3 11 -13
18 -30 15 -38 -3 -8 0 -14 7 -14 6 0 23 -13 37 -30 13 -16 30 -30 37 -30 7 0
21 -9 30 -19 10 -11 25 -17 33 -14 11 4 7 9 -13 18 -51 21 -96 68 -125 130
-16 33 -29 65 -29 71 0 7 -6 14 -14 17 -11 4 -12 -2 -6 -29z"
          />
          <path
            d="M3065 2325 c-31 -25 -28 -33 4 -15 10 5 21 16 25 25 7 19 7 19 -29
-10z"
          />
          <path
            d="M2200 2325 c-8 -10 -9 -15 -2 -15 19 0 0 -31 -24 -41 -16 -6 -24 -16
-23 -31 l2 -23 4 23 c3 13 12 22 22 22 9 0 27 13 39 30 26 35 28 48 5 29 -15
-12 -16 -12 -10 4 8 21 3 22 -13 2z"
          />
          <path
            d="M2876 2314 c4 -10 4 -16 -1 -12 -4 4 -14 1 -22 -7 -17 -18 -34 -20
-30 -4 1 6 -4 14 -10 16 -7 3 -13 0 -13 -7 0 -6 -5 -8 -12 -4 -9 5 -9 2 1 -9
16 -21 26 -19 -134 -26 -44 -2 -55 -5 -40 -11 30 -13 83 -12 105 3 17 10 22 9
30 -2 6 -11 12 -12 22 -3 8 6 32 9 54 7 33 -4 34 -3 9 3 l-30 8 30 6 c17 4 32
2 33 -3 6 -15 92 -11 92 4 0 8 9 13 21 13 12 -1 28 10 37 24 l16 25 -25 -22
c-31 -28 -43 -29 -36 -3 6 24 -8 27 -17 4 -3 -9 -11 -12 -18 -8 -7 5 -9 2 -5
-9 3 -9 0 -18 -8 -21 -17 -6 -30 10 -15 19 5 3 10 11 10 16 0 6 -5 7 -10 4 -6
-4 -18 -1 -26 6 -12 10 -13 9 -8 -7z"
          />
          <path
            d="M3350 2316 c0 -9 -7 -19 -15 -22 -20 -8 -19 -24 0 -24 9 0 19 -10 24
-22 6 -18 9 -19 14 -5 5 13 11 15 32 7 25 -9 25 -9 9 15 -12 19 -13 28 -4 45
11 20 10 21 -10 10 -16 -9 -25 -8 -36 1 -11 9 -14 8 -14 -5z"
          />
          <path
            d="M1751 2254 c-44 -18 -62 -34 -55 -45 3 -5 16 -2 29 7 21 14 24 14 37
-5 13 -19 17 -19 34 -6 13 10 15 14 5 15 -11 0 -11 3 -1 15 7 8 9 15 4 16 -5
1 2 5 16 9 24 8 24 8 -5 9 -16 0 -45 -6 -64 -15z"
          />
          <path
            d="M2374 2255 c-4 -8 -10 -13 -14 -10 -5 3 -3 -6 3 -20 12 -26 14 -26
60 -29 29 -2 33 4 17 20 -7 7 1 9 24 6 18 -2 36 0 39 5 3 5 -22 8 -56 8 -53 0
-62 3 -61 18 2 21 -5 22 -12 2z"
          />
          <path d="M3187 2246 c-3 -8 0 -19 7 -25 10 -9 12 -6 8 14 -5 29 -8 31 -15 11z" />
          <path d="M2240 2240 c-8 -5 -11 -12 -7 -16 4 -4 13 -2 19 4 15 15 7 24 -12 12z" />
          <path
            d="M2705 2226 c-12 -12 -27 -26 -35 -29 -12 -4 -11 -6 3 -6 10 -1 20 6
23 14 3 8 14 17 25 20 10 4 19 11 19 16 0 15 -14 10 -35 -15z"
          />
          <path
            d="M1889 2205 c11 -20 17 -34 12 -31 -5 3 -11 -1 -15 -9 -7 -19 18 -20
34 0 16 20 4 50 -26 64 l-26 12 21 -36z"
          />
          <path
            d="M2561 2223 c-1 -16 5 -23 18 -23 11 0 26 -7 35 -15 22 -22 32 -18 11
5 -10 11 -26 20 -36 20 -10 0 -20 8 -22 18 -4 13 -5 11 -6 -5z"
          />
          <path d="M2135 2199 c-4 -6 -5 -12 -2 -15 2 -3 7 2 10 11 7 17 1 20 -8 4z" />
          <path d="M2478 2193 c6 -2 18 -2 25 0 6 3 1 5 -13 5 -14 0 -19 -2 -12 -5z" />
          <path
            d="M1570 2164 c-53 -16 -87 -35 -117 -62 -23 -22 -64 -47 -90 -57 -66
-25 -113 -56 -151 -99 -59 -67 -83 -135 -66 -180 10 -26 20 -18 22 17 2 17 7
34 13 35 6 3 5 9 -2 18 -9 12 -9 13 2 9 9 -3 15 1 16 12 6 64 20 93 44 93 10
0 30 12 44 27 14 15 25 24 25 18 0 -5 6 -1 13 8 6 9 24 18 40 19 17 2 48 22
84 55 31 29 62 53 68 53 7 0 26 7 44 16 17 9 38 13 47 10 18 -7 65 14 58 25
-7 11 -6 12 -94 -17z"
          />
          <path
            d="M2147 2176 c-7 -18 3 -56 14 -56 5 0 5 10 0 23 -4 12 -6 28 -4 35 6
17 -4 15 -10 -2z"
          />
          <path
            d="M2512 2168 c2 -6 18 -19 36 -28 17 -10 39 -23 47 -30 9 -7 18 -10 21
-7 8 8 -34 47 -51 47 -8 0 -15 4 -15 9 0 5 -9 11 -21 14 -12 3 -19 1 -17 -5z"
          />
          <path d="M2680 2160 c-9 -6 -10 -10 -3 -10 6 0 15 5 18 10 8 12 4 12 -15 0z" />
          <path
            d="M1760 2149 c0 -5 4 -8 9 -4 5 3 12 1 15 -4 4 -5 -4 -11 -16 -13 -17
-2 -22 -9 -21 -26 3 -28 -20 -29 -47 -2 -11 11 -17 20 -12 20 4 0 -1 5 -11 11
-20 12 -51 -6 -41 -23 3 -5 -6 -6 -22 -2 -28 7 -28 7 -13 -17 21 -30 43 -31
47 -1 4 24 22 31 22 8 0 -8 6 -17 13 -19 6 -3 3 -6 -8 -7 l-20 -1 20 -10 c16
-8 15 -8 -8 -4 -17 4 -26 2 -23 -4 4 -5 1 -13 -5 -17 -8 -4 -9 -3 -5 4 9 15 1
15 -25 2 -11 -7 -19 -7 -19 -1 0 5 6 11 13 14 8 3 7 10 -7 23 -17 17 -18 17
-13 2 4 -10 3 -17 -1 -17 -19 3 -23 -2 -13 -15 9 -11 8 -15 -4 -20 -9 -3 -13
-2 -10 4 4 6 -9 10 -32 9 -21 0 -32 -3 -25 -6 6 -2 12 -14 12 -25 0 -14 -5
-18 -17 -14 -56 15 -85 17 -99 5 -10 -8 -12 -14 -4 -19 7 -4 -8 -16 -36 -29
-36 -17 -44 -25 -33 -32 11 -7 9 -9 -8 -9 -32 0 -37 -17 -7 -24 24 -6 25 -8
11 -24 -8 -9 -17 -26 -20 -37 -4 -18 -5 -18 -6 3 -1 22 -31 33 -31 11 0 -8 -5
-8 -15 1 -8 7 -22 10 -30 6 -21 -8 -19 -38 2 -34 12 2 19 -6 24 -29 3 -18 4
-35 1 -38 -10 -10 -22 -5 -22 10 0 8 -4 15 -10 15 -5 0 -10 -7 -10 -16 0 -8
-4 -12 -10 -9 -5 3 -10 1 -10 -4 0 -6 7 -11 16 -11 8 0 12 -5 9 -10 -6 -10
107 -70 132 -70 6 0 44 -25 83 -55 60 -45 85 -57 146 -71 47 -10 96 -30 136
-55 35 -22 81 -48 103 -59 46 -22 265 -84 272 -76 4 4 -74 30 -219 71 -31 9
-74 29 -96 45 -65 47 -123 72 -196 86 -38 8 -74 19 -80 24 -8 8 -5 9 9 4 13
-5 10 1 -10 17 -53 44 -111 79 -128 79 -9 0 -17 4 -17 9 0 27 96 -1 103 -30 4
-13 10 -17 23 -12 11 4 15 3 11 -4 -4 -6 0 -13 7 -16 8 -3 16 -1 18 5 5 15 49
-9 45 -25 -1 -7 11 -13 28 -15 17 -2 38 -11 48 -20 11 -10 32 -15 55 -14 22 2
45 -4 57 -13 11 -9 14 -14 8 -10 -20 10 -15 -10 7 -30 19 -17 25 -14 20 10 -1
6 10 -1 24 -14 26 -24 37 -17 14 8 -7 8 12 -5 43 -28 36 -26 81 -48 123 -60
37 -10 75 -26 85 -35 9 -9 31 -16 48 -16 37 0 63 -9 63 -21 0 -5 -19 -7 -42
-4 l-43 5 35 -14 c19 -8 57 -15 83 -15 38 -1 53 4 72 24 28 27 30 38 13 57 -7
7 -14 22 -16 33 -2 11 -11 31 -20 45 -9 14 -15 28 -14 33 1 4 -12 10 -29 14
-20 4 -38 17 -50 37 -17 27 -19 28 -19 9 0 -12 5 -25 10 -28 8 -5 7 -11 0 -20
-7 -8 -8 -20 -4 -26 4 -7 3 -9 -3 -6 -14 9 -23 -39 -10 -52 15 -15 30 -14 21
2 -4 7 -3 9 2 4 5 -5 9 -12 10 -15 2 -19 17 -41 24 -37 4 3 13 -2 20 -10 18
-21 7 -19 -63 13 -34 16 -105 39 -157 51 -87 20 -99 25 -148 71 -43 40 -68 54
-138 76 -47 15 -118 47 -157 71 -44 26 -84 43 -103 43 -20 0 -50 13 -83 38
-42 31 -51 42 -51 68 0 18 8 38 20 49 11 10 20 14 20 10 0 -5 14 4 30 20 17
16 30 35 30 42 0 14 -1 14 50 17 32 2 80 21 80 31 0 3 -11 0 -25 -5 -14 -5
-25 -6 -25 -2 0 4 24 16 53 26 28 10 58 21 66 24 10 4 12 1 6 -8 -5 -9 -4 -11
4 -6 6 4 9 11 7 15 -6 10 27 27 74 39 46 11 66 9 63 -6 -2 -7 2 -12 9 -12 6 0
21 -8 32 -17 20 -18 21 -18 5 2 -24 30 -34 49 -21 41 6 -3 16 7 24 24 10 23
21 31 48 36 50 8 60 12 60 23 0 7 -9 7 -27 0 -19 -7 -28 -6 -34 2 -4 7 -14 9
-23 6 -8 -3 -18 -2 -21 3 -8 13 -55 13 -55 -1z m-466 -358 c3 -5 -1 -14 -8
-20 -12 -10 -13 -8 -9 8 6 23 9 25 17 12z m-5 -72 c-10 -6 -10 -11 2 -25 8
-10 10 -16 4 -13 -5 3 -23 11 -38 19 l-28 14 23 12 c25 13 59 7 37 -7z m768
-325 c-3 -3 -12 -4 -19 -1 -8 3 -5 6 6 6 11 1 17 -2 13 -5z m217 -22 c7 -12
-12 -38 -21 -28 -4 5 -2 11 6 14 11 4 11 6 0 13 -9 6 -10 9 -2 9 6 0 14 -4 17
-8z"
          />
          <path
            d="M2203 2144 c-3 -10 -11 -22 -17 -26 -8 -5 -7 -8 1 -8 14 0 38 39 29
47 -3 3 -9 -3 -13 -13z"
          />
          <path
            d="M3170 2140 c-23 -7 -23 -8 -3 -9 12 -1 25 4 28 9 3 6 5 10 3 9 -2 -1
-14 -5 -28 -9z"
          />
          <path
            d="M1512 2113 c-6 -2 -10 -9 -6 -14 8 -14 21 -11 21 6 0 8 -1 15 -1 14
-1 0 -7 -3 -14 -6z"
          />
          <path
            d="M1903 2103 c-4 -10 -11 -21 -16 -24 -5 -3 1 -9 13 -12 17 -4 20 -2
15 16 -3 12 3 4 13 -17 11 -24 21 -35 25 -29 8 13 -22 83 -35 83 -5 0 -12 -8
-15 -17z"
          />
          <path d="M1138 2103 c7 -3 16 -2 19 1 4 3 -2 6 -13 5 -11 0 -14 -3 -6 -6z" />
          <path
            d="M3465 2047 c-44 -12 -72 -23 -61 -25 10 -2 45 4 78 13 33 9 72 14 87
11 19 -5 22 -4 11 4 -8 5 -10 10 -4 10 5 0 14 -4 20 -9 5 -5 49 -11 97 -14
101 -6 104 5 6 22 -90 15 -141 13 -234 -12z"
          />
          <path
            d="M1195 2046 c-11 -6 -22 -14 -25 -17 -9 -10 -40 -18 -40 -10 0 4 -7 8
-15 8 -8 0 -15 -4 -15 -9 0 -4 -12 -8 -27 -9 l-28 -1 32 -10 c43 -14 95 -3
123 27 27 28 24 38 -5 21z"
          />
          <path d="M3798 2033 c6 -2 18 -2 25 0 6 3 1 5 -13 5 -14 0 -19 -2 -12 -5z" />
          <path
            d="M3700 2020 l-145 -6 155 -4 c122 -3 135 -5 60 -7 -366 -10 -600 -57
-759 -150 -40 -24 -76 -41 -80 -37 -8 8 24 32 81 59 26 12 44 26 40 30 -4 5 0
6 9 3 9 -4 16 -1 16 8 0 7 -3 12 -6 10 -3 -2 -42 -25 -86 -51 -44 -27 -91 -54
-105 -62 -23 -12 -18 -13 49 -13 64 0 77 3 103 25 16 14 34 23 39 19 5 -3 23
4 39 16 35 25 36 23 12 -27 -11 -21 -24 -49 -30 -63 -7 -17 -11 -20 -11 -8 -1
10 -10 22 -21 28 -12 6 -17 17 -14 28 5 14 3 14 -10 -3 -15 -18 -15 -20 4 -27
33 -12 23 -15 -35 -10 -42 3 -56 1 -60 -10 -5 -11 -26 -15 -95 -15 -64 0 -88
3 -83 11 4 6 0 5 -9 -2 -12 -9 -18 -10 -23 -2 -10 17 -2 21 57 30 50 7 51 8
13 9 -41 1 -106 -25 -112 -45 -2 -7 3 -19 12 -28 9 -9 14 -20 11 -25 -4 -5 -1
-11 5 -13 7 -2 7 -12 1 -28 -12 -31 6 -51 39 -43 l24 6 -22 -23 c-19 -21 -24
-22 -40 -9 -17 13 -17 13 -1 -7 10 -11 16 -33 15 -49 -2 -25 3 -32 30 -44 17
-8 36 -24 42 -37 6 -13 19 -24 29 -24 11 0 27 -9 37 -20 10 -11 26 -20 35 -20
9 0 25 -10 36 -21 17 -19 27 -21 81 -16 71 5 122 31 141 70 7 15 18 27 25 26
9 0 9 -2 0 -6 -7 -2 -13 -9 -13 -14 0 -11 -6 -15 430 244 184 109 342 206 351
215 29 29 31 57 9 83 l-21 24 16 -27 c13 -21 14 -31 5 -47 -9 -18 -14 -19 -30
-9 -16 10 -22 10 -32 -1 -11 -12 -10 -13 5 -8 33 12 17 -3 -38 -34 -30 -17
-53 -35 -50 -39 3 -5 0 -12 -6 -16 -8 -4 -9 -3 -5 4 4 7 4 12 0 12 -7 0 -89
-57 -121 -85 -11 -9 -39 -27 -64 -41 -41 -24 -37 -18 23 29 13 10 16 15 8 11
-20 -11 -50 -12 -44 -2 3 4 0 8 -6 8 -6 0 -34 -24 -64 -52 -29 -29 -63 -61
-77 -71 l-24 -18 24 12 c15 7 21 7 17 1 -6 -10 -207 -137 -246 -156 -27 -14
34 34 78 60 54 33 54 41 1 13 -23 -11 -52 -19 -65 -16 -18 3 -24 0 -24 -14 0
-11 -4 -19 -9 -19 -7 0 -24 87 -20 106 0 4 -5 10 -12 15 -11 6 -10 13 1 34 20
38 18 124 -4 158 -10 15 -15 27 -11 27 4 0 0 11 -9 25 -9 14 -12 25 -6 25 5 0
10 -4 10 -10 0 -5 5 -10 11 -10 5 0 8 4 4 9 -3 5 4 12 15 16 11 4 18 11 15 16
-7 10 -5 10 72 12 49 2 88 16 47 18 -18 0 -18 1 1 9 11 5 29 9 40 9 l20 0 -20
-10 c-18 -8 -17 -9 5 -5 14 2 72 14 129 26 65 14 119 20 145 16 37 -6 77 -11
100 -15 5 0 3 -8 -4 -16 -10 -13 -9 -15 9 -15 12 0 19 4 16 10 -8 13 6 17 89
25 64 6 76 17 31 28 -13 3 -7 5 15 6 28 2 31 4 15 10 -36 15 -79 17 -225 11z
m-413 -96 c-3 -3 -12 -4 -19 -1 -8 3 -5 6 6 6 11 1 17 -2 13 -5z m-100 -171
l6 -38 -23 28 c-17 22 -25 25 -36 16 -8 -6 -14 -17 -13 -23 0 -7 2 -6 6 2 8
21 31 13 47 -18 13 -27 13 -35 0 -65 -11 -28 -12 -44 -3 -80 6 -25 9 -62 6
-81 -7 -43 -34 -87 -47 -79 -6 3 -1 18 10 33 21 30 40 109 23 99 -6 -4 -13
-25 -16 -48 -4 -32 -13 -49 -36 -66 -28 -22 -46 -63 -21 -48 6 3 10 1 10 -4 0
-6 -6 -11 -14 -11 -8 0 -20 -2 -28 -5 -9 -4 -13 5 -14 30 0 19 2 35 6 35 4 0
12 11 18 25 6 14 18 25 25 25 20 0 37 45 31 78 -4 18 -1 32 9 40 18 15 11 48
-11 57 -14 5 -13 9 8 25 21 16 23 21 11 32 -9 9 -12 9 -7 1 4 -7 -5 -18 -22
-27 -25 -13 -32 -13 -67 4 l-40 18 37 1 c49 1 74 11 56 22 -10 7 -10 9 0 9 6
0 12 11 12 25 0 15 7 40 16 57 l16 31 20 -31 c10 -17 22 -48 25 -69z m-464
-16 c-3 -5 -10 -4 -15 1 -6 6 -7 16 -3 22 6 9 9 9 16 -1 4 -7 5 -17 2 -22z
m155 -17 c-7 -11 -21 -20 -31 -20 -15 0 -17 -6 -11 -35 9 -50 -2 -85 -27 -85
-17 0 -20 4 -14 28 4 20 1 33 -10 42 -17 15 -19 29 -5 64 8 23 15 26 60 26 48
0 50 -1 38 -20z m68 11 c5 -5 18 -11 29 -14 16 -4 14 -5 -6 -6 -15 0 -29 -7
-32 -15 -3 -9 -15 -12 -31 -9 -30 6 -32 10 -9 35 18 20 34 23 49 9z m-183 -21
c-3 -11 -7 -20 -9 -20 -2 0 -4 9 -4 20 0 11 4 20 9 20 5 0 7 -9 4 -20z m305
-50 c56 -34 62 -44 34 -59 -12 -6 -34 -2 -74 14 -31 13 -58 21 -61 19 -2 -2
-4 2 -4 9 0 6 -3 22 -7 34 -6 20 -4 21 26 18 19 -1 57 -17 86 -35z m-311 6
c-3 -8 -1 -17 6 -19 7 -2 9 -8 5 -12 -4 -4 -15 -5 -24 -1 -12 5 -14 9 -5 20 6
7 8 16 4 19 -3 4 -1 7 6 7 7 0 11 -6 8 -14z m230 -115 c50 -25 93 -28 93 -6 0
8 5 15 10 15 6 0 10 -9 10 -19 0 -15 -8 -21 -32 -23 -26 -2 -33 -7 -33 -25 0
-25 -39 -58 -56 -47 -8 4 -8 0 0 -15 7 -11 16 -21 22 -21 6 0 7 -5 4 -10 -11
-18 -45 9 -45 35 0 13 -5 27 -10 30 -6 4 -3 17 10 35 31 43 24 48 -12 8 -18
-20 -45 -39 -59 -42 -25 -5 -26 -4 -24 37 0 23 9 54 19 70 18 27 14 32 -21 28
-15 -2 -15 1 -7 23 5 13 13 10 48 -18 22 -18 60 -43 83 -55z m-191 -3 c-3 -7
-9 -21 -12 -30 -7 -20 -13 -22 -33 -9 -10 7 -11 13 -2 30 12 22 57 31 47 9z
m54 -18 c0 -5 -4 -10 -10 -10 -5 0 -10 5 -10 10 0 6 5 10 10 10 6 0 10 -4 10
-10z m5 -30 c3 -6 -1 -7 -9 -4 -18 7 -21 14 -7 14 6 0 13 -4 16 -10z m235 -7
c-8 -3 -22 -11 -30 -17 -13 -10 -13 -9 -1 7 7 9 21 17 30 16 13 0 14 -1 1 -6z
m-244 -29 c16 -17 19 -24 9 -20 -9 3 -20 6 -25 6 -4 0 -10 9 -13 20 -7 26 -3
25 29 -6z m71 -15 c-14 -8 -22 -8 -30 0 -8 8 -3 11 19 11 25 -1 27 -2 11 -11z
m31 -32 c3 -13 -2 -16 -20 -13 -13 3 -27 5 -32 5 -6 1 -1 8 10 16 23 17 38 14
42 -8z m82 19 c0 -3 -4 -8 -10 -11 -5 -3 -10 -1 -10 4 0 6 5 11 10 11 6 0 10
-2 10 -4z m-8 -58 c-8 -8 -9 -4 -5 13 4 13 8 18 11 10 2 -7 -1 -18 -6 -23z
m-32 -9 c0 -5 -7 -9 -15 -9 -8 0 -15 7 -15 15 0 9 6 12 15 9 8 -4 15 -10 15
-15z"
          />
          <path
            d="M1867 2014 c-14 -14 -7 -35 11 -32 9 2 17 10 17 17 0 16 -18 25 -28
15z"
          />
          <path
            d="M1930 2015 c-1 -5 -3 -19 -5 -30 -1 -11 -6 -35 -10 -52 -6 -25 -4
-33 6 -33 12 0 12 -2 0 -9 -11 -7 -11 -15 -2 -42 8 -23 8 -35 1 -37 -16 -6
-12 -20 11 -33 17 -9 20 -8 13 2 -4 8 5 3 21 -9 17 -13 45 -32 63 -44 17 -11
32 -25 32 -31 0 -18 31 -46 46 -40 8 3 14 -1 14 -8 0 -7 3 -10 6 -6 3 3 -3 26
-14 50 -13 29 -17 48 -10 55 12 12 -32 103 -45 95 -6 -4 -8 0 -4 10 4 10 2 16
-5 14 -6 -1 -13 4 -16 12 -3 8 0 11 7 7 8 -5 8 -1 0 18 -7 14 -17 23 -22 19
-7 -4 -8 1 -3 13 4 10 4 15 0 12 -10 -10 -32 16 -40 46 -3 14 -10 26 -14 26
-5 0 -5 -14 0 -31 7 -23 6 -31 -6 -36 -7 -3 -14 -13 -15 -22 0 -12 -2 -13 -6
-2 -3 8 1 19 10 25 13 10 13 16 2 41 -7 17 -14 26 -15 20z m149 -215 c11 -24
11 -24 -3 -6 -9 11 -16 24 -16 30 0 12 5 7 19 -24z"
          />
          <path d="M3348 2013 c6 -2 18 -2 25 0 6 3 1 5 -13 5 -14 0 -19 -2 -12 -5z" />
          <path
            d="M2290 1999 c0 -5 5 -7 10 -4 6 3 10 8 10 11 0 2 -4 4 -10 4 -5 0 -10
-5 -10 -11z"
          />
          <path
            d="M3270 2000 c-20 -6 -21 -8 -5 -8 11 0 31 4 45 8 20 6 21 8 5 8 -11 0
-31 -4 -45 -8z"
          />
          <path d="M3478 2003 c12 -2 30 -2 40 0 9 3 -1 5 -23 4 -22 0 -30 -2 -17 -4z" />
          <path d="M3408 1993 c6 -2 18 -2 25 0 6 3 1 5 -13 5 -14 0 -19 -2 -12 -5z" />
          <path
            d="M1335 1980 c3 -5 8 -10 11 -10 2 0 4 5 4 10 0 6 -5 10 -11 10 -5 0
-7 -4 -4 -10z"
          />
          <path
            d="M1585 1978 c-2 -7 -9 -32 -14 -56 -9 -42 -9 -43 10 -26 10 9 19 12
19 6 0 -6 -4 -14 -10 -17 -5 -3 -10 -16 -9 -28 0 -21 1 -21 10 -2 7 17 9 16 8
-10 -2 -47 0 -57 10 -50 5 3 12 1 15 -4 15 -24 -16 -18 -60 12 -53 35 -118 43
-134 17 -5 -8 -15 -15 -22 -15 -7 0 -13 -12 -14 -27 -1 -15 3 -25 7 -22 5 3 9
1 9 -4 0 -14 100 -64 116 -58 8 3 13 2 10 -3 -6 -10 39 -32 48 -24 3 4 6 27 6
53 0 44 1 47 25 45 14 -2 25 2 25 8 0 9 2 9 8 0 5 -7 33 -11 79 -10 60 2 75 6
97 26 14 14 26 31 26 40 0 11 -3 10 -15 -5 -13 -17 -13 -16 -3 13 9 23 15 29
21 20 5 -7 6 2 3 23 -8 42 -63 103 -88 96 -10 -2 -16 0 -12 5 3 5 -19 9 -50 9
-48 0 -57 -3 -80 -31 -14 -17 -26 -26 -26 -21 0 6 -3 18 -7 28 -5 13 -3 15 7
9 9 -5 11 -4 6 3 -9 15 -16 15 -21 0z m32 -80 c-3 -8 -6 -5 -6 6 -1 11 2 17 5
13 3 -3 4 -12 1 -19z m27 -52 c11 -18 13 -25 5 -20 -8 5 -18 9 -24 9 -9 0 -10
6 -6 37 1 13 0 13 25 -26z"
          />
          <path d="M3218 1983 c7 -3 16 -2 19 1 4 3 -2 6 -13 5 -11 0 -14 -3 -6 -6z" />
          <path d="M3348 1983 c6 -2 18 -2 25 0 6 3 1 5 -13 5 -14 0 -19 -2 -12 -5z" />
          <path
            d="M3170 1970 c-8 -5 -10 -10 -5 -10 6 0 17 5 25 10 8 5 11 10 5 10 -5
0 -17 -5 -25 -10z"
          />
          <path d="M3298 1973 c7 -3 16 -2 19 1 4 3 -2 6 -13 5 -11 0 -14 -3 -6 -6z" />
          <path d="M3258 1963 c7 -3 16 -2 19 1 4 3 -2 6 -13 5 -11 0 -14 -3 -6 -6z" />
          <path
            d="M3110 1945 c-14 -8 -20 -14 -15 -14 6 0 21 6 35 14 14 8 21 14 15 14
-5 0 -21 -6 -35 -14z"
          />
          <path
            d="M1487 1913 c-11 -10 -8 -45 3 -38 6 3 10 0 10 -7 0 -8 5 -7 17 4 13
14 14 20 3 32 -14 17 -23 20 -33 9z"
          />
          <path
            d="M1240 1900 c0 -5 5 -10 10 -10 6 0 10 5 10 10 0 6 -4 10 -10 10 -5 0
-10 -4 -10 -10z"
          />
          <path
            d="M1412 1874 c-12 -8 -22 -12 -22 -8 0 4 -8 0 -18 -9 -10 -10 -22 -14
-27 -10 -4 5 -5 2 -1 -4 12 -21 33 -15 68 17 36 32 36 39 0 14z"
          />
          <path d="M3795 1879 c-11 -17 1 -21 15 -4 8 9 8 15 2 15 -6 0 -14 -5 -17 -11z" />
          <path
            d="M2415 1850 c3 -5 8 -10 11 -10 2 0 4 5 4 10 0 6 -5 10 -11 10 -5 0
-7 -4 -4 -10z"
          />
          <path d="M1881 1834 c0 -11 3 -14 6 -6 3 7 2 16 -1 19 -3 4 -6 -2 -5 -13z" />
          <path
            d="M2310 1839 c0 -5 -4 -8 -10 -4 -5 3 -5 -7 1 -25 6 -16 15 -30 20 -30
5 0 5 10 0 23 -4 12 -6 28 -4 35 3 6 2 12 -1 12 -3 0 -6 -5 -6 -11z"
          />
          <path
            d="M3184 1836 c1 -9 7 -21 13 -27 9 -9 11 -7 9 5 -1 9 -7 21 -13 27 -9
9 -11 7 -9 -5z"
          />
          <path d="M2488 1793 c5 -21 7 -23 10 -9 2 10 0 22 -6 28 -6 6 -7 0 -4 -19z" />
          <path
            d="M3550 1810 c0 -5 5 -10 10 -10 6 0 10 5 10 10 0 6 -4 10 -10 10 -5 0
-10 -4 -10 -10z"
          />
          <path d="M3300 1734 c0 -8 5 -12 10 -9 6 4 8 11 5 16 -9 14 -15 11 -15 -7z" />
          <path d="M1805 1719 c-11 -17 1 -21 15 -4 8 9 8 15 2 15 -6 0 -14 -5 -17 -11z" />
          <path
            d="M1889 1725 c-3 -2 -16 -6 -30 -8 -15 -3 -24 -11 -25 -23 0 -27 -21
-71 -35 -76 -16 -5 47 -72 88 -92 51 -26 108 -21 132 10 37 48 17 145 -36 172
-23 12 -88 24 -94 17z m92 -25 c25 -14 49 -62 48 -97 -1 -23 -3 -21 -9 11 -5
26 -19 50 -39 68 -33 29 -33 35 0 18z m-87 -141 c17 -10 26 -19 20 -19 -17 0
-64 40 -63 53 0 8 3 7 6 -1 3 -8 19 -22 37 -33z m126 7 c0 -2 -8 -10 -17 -17
-16 -13 -17 -12 -4 4 13 16 21 21 21 13z m-57 -43 c-7 -2 -21 -2 -30 0 -10 3
-4 5 12 5 17 0 24 -2 18 -5z"
          />
          <path d="M2395 1669 c-4 -6 -5 -12 -2 -15 2 -3 7 2 10 11 7 17 1 20 -8 4z" />
          <path
            d="M1700 1631 c0 -5 5 -13 10 -16 6 -3 10 -2 10 4 0 5 -4 13 -10 16 -5
3 -10 2 -10 -4z"
          />
          <path
            d="M3245 1631 c-6 -11 13 -26 22 -17 4 3 0 6 -8 6 -11 0 -11 2 1 10 9 6
10 10 3 10 -6 0 -14 -4 -18 -9z"
          />
          <path
            d="M2403 1610 c15 -12 25 -25 22 -29 -2 -5 7 -23 20 -41 14 -19 25 -31
25 -27 0 3 19 -13 41 -36 23 -23 36 -33 28 -22 -8 11 -35 42 -61 68 -26 26
-45 53 -43 60 7 17 -6 33 -35 42 l-25 7 28 -22z"
          />
          <path d="M2132 1600 c0 -14 2 -19 5 -12 2 6 2 18 0 25 -3 6 -5 1 -5 -13z" />
          <path d="M2098 1577 c-3 -19 -2 -25 4 -19 6 6 8 18 6 28 -3 14 -5 12 -10 -9z" />
          <path
            d="M2364 1586 c11 -9 24 -16 30 -16 12 0 7 5 -24 19 -24 11 -24 11 -6
-3z"
          />
          <path d="M3384 1574 c-18 -14 -18 -15 4 -4 12 6 22 13 22 15 0 8 -5 6 -26 -11z" />
          <path d="M2577 1565 c3 -8 9 -12 14 -9 12 7 11 11 -5 17 -10 4 -13 1 -9 -8z" />
          <path
            d="M2090 1472 c0 -14 6 -22 16 -22 14 0 15 3 3 18 -7 9 -15 19 -16 21
-2 2 -3 -5 -3 -17z"
          />
          <path d="M2030 1461 c0 -12 26 -32 33 -25 3 4 0 13 -8 20 -16 16 -25 18 -25 5z" />
          <path d="M2640 1352 c29 -34 56 -60 59 -57 3 3 -21 31 -54 63 l-58 57 53 -63z" />
          <path d="M2690 701 c0 -6 4 -13 10 -16 6 -3 7 1 4 9 -7 18 -14 21 -14 7z" />
          <path
            d="M2849 558 c-7 -23 -4 -35 7 -35 9 0 11 4 4 12 -5 7 -7 15 -3 18 3 4
3 7 0 7 -4 0 -7 -1 -8 -2z"
          />
        </g>
      </svg>